<mxfile host="Electron" modified="2023-09-12T03:52:17.773Z" agent="Mozilla/5.0 (Macintosh; Intel Mac OS X 10_15_7) AppleWebKit/537.36 (KHTML, like Gecko) draw.io/21.5.0 Chrome/112.0.5615.204 Electron/24.5.1 Safari/537.36" etag="WtC9X1GlDQJThCAk96lX" version="21.5.0" type="device">
  <diagram name="Page-1" id="iaXaAQSBiDQSSND4GxY8">
    <mxGraphModel dx="1113" dy="1123" grid="1" gridSize="10" guides="1" tooltips="1" connect="1" arrows="1" fold="1" page="1" pageScale="1" pageWidth="850" pageHeight="1100" math="0" shadow="0">
      <root>
        <mxCell id="0" />
        <mxCell id="1" parent="0" />
        <mxCell id="IfkOpMCxYSYoQuJ_WlAo-1" value="" style="rounded=0;whiteSpace=wrap;html=1;fillColor=#FFFFFF;" vertex="1" parent="1">
          <mxGeometry width="880" height="470" as="geometry" />
        </mxCell>
        <mxCell id="IfkOpMCxYSYoQuJ_WlAo-10" value="" style="rounded=1;whiteSpace=wrap;html=1;fillColor=#fad7ac;strokeColor=#b46504;" vertex="1" parent="1">
          <mxGeometry x="10" y="50" width="640" height="180" as="geometry" />
        </mxCell>
        <mxCell id="IfkOpMCxYSYoQuJ_WlAo-9" value="" style="edgeStyle=orthogonalEdgeStyle;rounded=0;orthogonalLoop=1;jettySize=auto;html=1;fillColor=#a0522d;strokeColor=#6D1F00;" edge="1" parent="1" source="IfkOpMCxYSYoQuJ_WlAo-2" target="IfkOpMCxYSYoQuJ_WlAo-3">
          <mxGeometry relative="1" as="geometry" />
        </mxCell>
        <mxCell id="IfkOpMCxYSYoQuJ_WlAo-2" value="UCI ML Repository Data" style="rounded=1;whiteSpace=wrap;html=1;" vertex="1" parent="1">
          <mxGeometry x="30" y="80" width="120" height="60" as="geometry" />
        </mxCell>
        <mxCell id="IfkOpMCxYSYoQuJ_WlAo-5" value="" style="edgeStyle=orthogonalEdgeStyle;rounded=0;orthogonalLoop=1;jettySize=auto;html=1;fillColor=#a0522d;strokeColor=#6D1F00;" edge="1" parent="1" source="IfkOpMCxYSYoQuJ_WlAo-3" target="IfkOpMCxYSYoQuJ_WlAo-4">
          <mxGeometry relative="1" as="geometry" />
        </mxCell>
        <mxCell id="IfkOpMCxYSYoQuJ_WlAo-3" value=".py script to extract" style="shape=process;whiteSpace=wrap;html=1;backgroundOutline=1;fillColor=#008a00;fontColor=#ffffff;strokeColor=#005700;" vertex="1" parent="1">
          <mxGeometry x="180" y="80" width="120" height="60" as="geometry" />
        </mxCell>
        <mxCell id="IfkOpMCxYSYoQuJ_WlAo-21" value="" style="rounded=1;whiteSpace=wrap;html=1;fillColor=#fad7ac;strokeColor=#b46504;" vertex="1" parent="1">
          <mxGeometry x="430" y="270" width="410" height="180" as="geometry" />
        </mxCell>
        <mxCell id="IfkOpMCxYSYoQuJ_WlAo-23" value="" style="edgeStyle=orthogonalEdgeStyle;rounded=0;orthogonalLoop=1;jettySize=auto;html=1;fillColor=#a0522d;strokeColor=#6D1F00;" edge="1" parent="1" source="IfkOpMCxYSYoQuJ_WlAo-4" target="IfkOpMCxYSYoQuJ_WlAo-7">
          <mxGeometry relative="1" as="geometry" />
        </mxCell>
        <mxCell id="IfkOpMCxYSYoQuJ_WlAo-4" value="Jupyter notebook to transform and load data to DuckDB" style="shape=process;whiteSpace=wrap;html=1;backgroundOutline=1;fillColor=#f0a30a;fontColor=#000000;strokeColor=#BD7000;" vertex="1" parent="1">
          <mxGeometry x="330" y="80" width="120" height="60" as="geometry" />
        </mxCell>
        <mxCell id="IfkOpMCxYSYoQuJ_WlAo-6" value="" style="shape=image;aspect=fixed;image=data:image/png,iVBORw0KGgoAAAANSUhEUgAAB8kAAAFNCAYAAACDq178AAAACXBIWXMAABYlAAAWJQFJUiTwAAAgAElEQVR4nOzd/VUcR7oH4K579n98I0AbAWwEYiMQG4FQBMIRCEdgFIEggkURGCIwRLAigisiqHvKemc9lkCCYXqmPp7nHI68PmvU0z0901W/et9KOecJAAAAAAAAAEbwP64yAAAAAAAAAKP4myvNHFJK+9M0/RQ/+/FXLP/zwstn/PW30zR9Wvrfn6dpur7nn69zzp9daAAAAAAAAEC7dVaSUnoxTVP5OYj/fvHnc0LvuS1C9cVPCdE/55wvvQsAAAAAAABgDEJyviultKj+Pog/SzC+1+FZu4vQ/HIRoOecrx/x3wEAAAAAAAANEZLzX18F4otQfGfwM3QTwfm14BwAAAAAAADaJyQfWLRMXw7Ee6wQX7e7pdD8Uqt2AAAAAAAAaIuQfCBRKV4C8cP4c3f0c7ImHyM4v1RpDgAAAAAAAHUTkncupbRon36kUnwjbiMwv4jQ/PMArxkAAAAAAACaISTvUErpcKliXLX4dn1cCsw/jXwiAAAAAAAAoAZC8k5EML742Rn9fFTqZpqmsxKaC8wBAAAAAABgO4TkDYtW6kfxIxhvy6LC/EJLdgAAAAAAANgcIXljUkovolr8WCv1bpxHWH4x+okAAAAAAACAuQnJGxHt1EvF+KvRz0XHbqMd+5l27AAAAAAAADAPIXnFUko/RcX4karx4ZR27Kc558vRTwQAAAAAAACsk5C8QrHXeAnHX49+LvijuvzE3uUAAAAAAACwHkLyikRL9RKOvxz9XPCNu1JZHtXlwnIAAAAAAABYkZC8Aimlo6gW1lKdxzgv7xf7lgMAAAAAAMDTCcm3SDjOMwnLAQAAAAAA4ImE5FsgHGfNhOUAAAAAAADwSELyDRKOMzNhOQAAAAAAAPyAkHwDUkqH0zSdCsfZkPcRln92wgEAAAAAAOCvhOQzSikdROX4y25fJLW6i4UZp8JyAAAAAAAA+JOQfAYppRcRjr/u7sXRmtuoKj9z5QAAAAAAAEBIvnYppRKOH0/TtNPZS6NtV+V9mXO+dh0BAAAAAAAYmZB8TaK1+pl9x6mc/coBAAAAAAAYmpD8maK1etn7+VXTL4SR3EVVuRbsAAAAAAAADEdI/gwppePYe1xrdVpUWrAf5Zw/uXoAAAAAAACM4n9c6adLKe2nlC6nafpVQE7DXk7TdB2LPQAAAAAAAGAIKsmfKKVUKsffNXXQ8GM3UVV+7VwBAAAAAADQMyH5I8Xe4xfTNO01ccDwdGWv8pOc86lzBwAAAAAAQK+0W3+EaEd9LSCnc2XrgF/LVgKxKAQAAAAAAAC6o5L8O1JKP0X1+MtqDxLmcRft1y+cXwCoVyxsO3KJqnC5fBA558t6DxUAALbPeKYqxjMDSykdTNN0MPp5qMDnKNhduM45fx75hMxNSP6A+FC4iOpaGNX5NE3HPogBoE7xzPqby1O122maPi0Ndss/fzLpBABjSCntT9PUytZ2ZTL+uILjYBDGM00wnhlASulkmqZ3o5+Hii3uw8U9eO0eXI+/9fAi1s0HAvzX62ma9lNKpar82mkBAHiy3fgpXi3+45TSFAPd6/i5tEocALr0ky6VQMOMZ2D7Fvfhf58n4h68Wbr/LnPOn1yrp1FJvkR7dXjQXVSUnzlFAFAPlRddulkMcGOQa5IJABrW2PPaVc5Zu102xnimS8YzDVI42o3buPcubKX7OP/TwkFuQnwhfxKQw73KtgMfUkpnsZgEAIB57E3T9Haapn9P0/R/KaXrMmERrVoBAABqdt945th4BjZiN7oD/zul9DnynEOn/mFC8i8B+XGsWLP/OHxf+YC9TCm9cJ4AADZiL1b0/55S+pRSOjXBBAAANKKMZ341noGN27knMHfvfWXokLxUxJY3RnxIA49THmyuo/sCAACbsxtVGcsTTBYvAgAALfh6PHNiPAMbsQjMy71XiiCPnPYvhg3Jo2X0ZbwxgKcpH6q/+TAFANiaxQTTfwxyAQCAxuxGxyzjGdisl7G17mKhytDb6w4ZkkdLgU9REQus7kN0YwAAYHsWg9zPqssBAIDGGM/A5i0Wqgwdlg8XkseKpEv7j8PavE4pXYy+4ggAoAI7S9XlZ7bHAQAAGmI8A5u3sxSWD9fRYaiQPC7wBwE5rN2rsvhEUA4AUI3XsT3OpcklAACgMcYzsFk7S23Yh7nnhgnJoyX0hwoOBXq1F6uN9l1hAIBqvDS5BAAANMp4BjZrN+65ixG2PhgiJI+A/HUFhwK924mKckE5AEBdTC4BAACtWh7PmHuG+ZXuwdcppeOez3XXIXlp/Vw+NAXksFGLoPzQaQcAqM5iculshFXhAABAV8p45nfjGdiIkvX8GotTurzfug3JY2/ky/jQBDarfHj+O6V05LwDAFTpdawKP4mxEwAAQCv+O55xxWB2L+N+6y7v6TIkXwrI9yo4HBjZB0E5AEC1ysLGdzHY1YIdAABoyR/jmZTSJ+MZmN1O5D1nPS207y4kF5BDdQTlAAB1240W7BeqygEAgMYYz8DmvI7tdrtov95VSC4gh2oJygEA6vdqmqZShXHsWgEAAI1ZjGcOXTiY1V4vHem6CckF5FA9QTkAQP1KC7VfU0qXqjAAAIDGlPHMv1WVw+x2ooND05lPFyG5gByaISgHAGjDS1UYAABAo1SVw2aUzOe01XPdfEguIIfmCMoBANqwqMI4U4UBAAA0ZjGeOTWegVm9LfMGLZ7ipkNyATk0S1AOANCO12XclVLad80AAIDGvDWegdm9bjEobzYkF5BD8z5odwMA0Iy9mFiy0BEAAGiN8QzMr7mgvOVK8jMBOTTvzAo+AIBm7LS+3xgAADAs4xmYX1NBeZMheZzgVxUcCvA8O1rdAAA0p+w3dmlfPwAAoEHGMzCvZoLy5kLylNJJ7IkH9GERlHsoAQBox0uLHQEAgEYZz8C8XkeeW7WmQvLYL+JdBYcCrJegHACgPXsmlgAAgEYZz8C83kWuW61mQvKU0kHZL6KCQwHmUR5KLpxbAICmlMWOv9c+8AUAALiH8QzM60PNC1GaCMnjBArPoH8vW9mrAgCAv/hgYgkAAGiU8QzMp9ouwtWH5HHizmJFD9C/1x5IAACaVCaWTl06AACgQR9a2EMZGvTHdrs1HnYLleQX0YYZGMeH2GIBAIC2vNUZCAAAaNQ74xmYxV6Ni+qrDsnjhL2s4FCAzbtIKb1w3gEAmvPaxBIAANAo4xmYR1lUf1jTua02JI92y28rOBRgO3YiKK9yrwoAAL7LxBIAANAq4xmYx1lNmU+VIXlKaX+aJnvZAXs+CwAAmmViCQAAaJXxDKxfKY6s5r6qLiSPFQQXcaIAXkdnCQAA2mNiCQAAaJXxDKzfq1rartdYSV4+cHYrOA6gHqfRYQIAgPaUiaUT1w0AAGhQGc8cu3CwVlW0Xa8qJI8PmlcVHApQl53a9qoAAOBJ3ukOBAAANOpX4xlYq50attqtJiSPKtFfKzgUoE72JwcAaNsHE0sAAECjjGdgvUqXhoNtntMqQvKoDrWvA/Aj9icHAGibbXQAAIBWGc/Aem11a7ZaKslPokoU4EfKg8gLZwkAoEmlpdqliSUAAKBBi/GM+WlYj5cppcNtncuth+Tx4t9u+ziAZuzoPAEA0LQ/nueioxgAAEBLynjmwngG1mZr2+xuNSTXZh1YUVldtNU2HAAAPEvpJHbhFAIAAA3ak23B2uxua5vdbVeSn8WqG4CneqdNJwBA08rCx62tGAcAAHiGVwq5YG22ci/9bVvXL9qsv9rW3w90oSy0EZQDQBuuyt5tHV+rF/HzU1QV8DhvU0qXOWdV5QAA1Mx4hvuUQq5r45mNOp+m6VOnr21xH+4PWGD8RzV5znmjHRq2EpJrsw6syV5ZrZdztmIPAOp3OdJ3dkppMbg9iAFu+dmt4NBqVPYnP8g5X49+IgAAqJbxjPHMQ4xnNuss59zzgpU/xD14ED+Hg4Tmx5vOjrdVSa7NOrAuZbVe+WLsdfUYANCgeDb5tFxtsjTI1VXrr3aWJpY+13RgAAAwou+MZw5jTGM88yfjGdYu7sGzRWgc3bnLz+uOz/Ze3EcbWwSx8T3Jywv0AQqsmc4UAED1yiC3tA7LOR/mnNM0Tf+KVnF8aelof3IAAKhUjGdOjWfutbetPZUZQ2npn3M+mqbp79M0/TJN012nL/xok3/ZRkNybdaBmbws+1U4uQBAS5YGuf87TdObaZpuBr+Ar2N1PAAAUDnjmW+8NZ5hbrFY5SS2QOhxkcrryJI3YtOV5Mf2rQBmcrrJD08AgHUpLfmiwrwMcv85eDXGWbRxBAAAGnDPeObjwNfNeIaNiLD8KO653haobKwgcmN7kscHw7tN/X3AcHaiRaeKcgCgWbH31mVK6STa9fW839h9dqL72EF9hwbwOCmlEhL8tPRZtvjfxcuZT+NV/Fn2RL1e+vNT7G0JPFEUZRwPct7+2B6oguOgUUvjmRfGMzC/cs/FNtflfnvbySk/2tR2bBsLybVZBzagtOI4i4cxAIBmRZBxFGF5GRy+Guhqlq10jst+hxUcC8CDIjjbj4nw8ueL2JN0m5ZD+L98d6RUto/9o9LoevFj/AyPclnBvb0Jd4I91sV4xniGzSndHMpirpTSddxvO42f/r2y6DTnfD33X7SRduuxD8PcK2UBplgxBQDQhWihdthpC7Xv+TUqMQGqUULxMseVUjqNScj/m6bpt+ic+KqREG0vqvp+LceeUsrltcRrso8qfKUUYwwSkBdHmwgkGMvA45kTbdfZtOgEchCLnlq3kY7Bm9qT3IoZYFPKSj0t1wGArpRKv9jj7+dOBryPYRwJbF1ZsFOqwZZC8X9HK8ueQrO9eE3/jtD8Ml6zyX2GFgH5KK2i3+ScLyo4Djo14HhmR3dltiEWO/UQlG9k8ebsIXm009id++8BWHISbe8AALoSLfv2l/ac7dkfbQq9g4FNi2C8VFaXVrG/R9X1KJWkU3SDLK/5P1FlLjBnOAMG5MI8NsJ4BubXSVC+u4nnz1lD8gipfAgAm7brswcA6FW0LDwYpApDm0JgI6KV+qJi/PeorFb08WVxwHJgfmRROr0ri2QE5DAf4xmY31JQ3rLZq8nnriQ/6WCDeKBNxwbuAEDPogrjoPO9/Xa0XQfmlFI6iIrR/xuwYvypyrn5ME3Tp3LOSsV9W4cPPxZb+L0d5FS9F5CzTcYzMK8Iyt80fJpnD/lnC8ljdcwoDxRAfTyAAADdW1odft7xa32VUtrIfmTAOKIiunyG/jZQxei67MQ5+z32L2+9Sgn+EAH5h0HOxnnOWRdGtm6g8YzvSrYiFkO1en+9mvsvmLOS/GTG3w3wGK+1swEAepdz/pxzPmp8hfiPnOoSBKxDhOOfIghTNf58Zf/y38o5jYARmjRgQO5+pRpL45mfO74qujawTWVR1G2LV2DuBSazhOQRSlmFC9TAgh0AYAixQvyfne7rtxsDe4CVfBWO22t8/co5/SAsp0UCcqhDtF/vdjyTUjJPzVaUhSjTNLX62T9rSP63mX6vVTFALUo1+UnO+ZMrAgD0Lue8aHt70WEIdFz2wK3puS4m1VuZbDiOdpasWWPvg7PR9p+N7RpOBeMbswjLyz1RxuKXg7xuGhV764+yXd+VgJzaLY1nLmN7j55UN55hHHFvfdxEC/M125/zl689JI8PsJfr/r0Az3DS8EopAIAnKUFoTPhedtZKeKfC57oXDY1/taufT0vvg2ECy6XgyxzVdizasH+MRToCAaqz9LzUWxB3n5tpmg7rOyz4VoxnXhjPwNodC8n/ao5261pGALWxNzkAMJRop3YQE6I9eT33nmRA21JKP6WUSjj+u4C8CmUi9j+lw1u5NqOfDOoxYEB+EM+H0ITOxzOzhn7wkFi0eN7YCdqd8xlyrSF53NwGIECNLOABAIbS8cSS5zrgXtFavUz+vXWGqvNumqZrC52ogYAc2tDxeGaULR6oU4vvv9kWlqy7kvx4zb8PYF1UkwMAw+l0YumlkAVYFtXjF9M0/XuQ0KtVu9GC/VRVOdsS772zQT4r7gTktM54BtarbGfQ4P1Uf0ge4dPrdf0+gBmoOgIAhtPpxJLnOuAPS9Xjre2vOLK3qsrZhgjIe9vj+CECcrphPANr11o1eRPt1t3UQO1UkwMAQ1qaWLrr5PW/jGAMGNTS3uOqx9u0qCo3n8hGDBqQX1dwLLAWMZ457Gw8Y7EY23LR2Jmf7V5ZS0geDxmqyIEWHLlKAMCIOgzK7eUHg1raT9je4+17l1K61H6dOQnIoQ8550+djWcsFGMrYm7gytlfXyW5vciBVhwbfAMAo4oJ014qsHdVk8N44r4fJewaxcvSMj8WP8Aczgb6zBCQ07XOxjOqydmm8jzdipdzHaeQHBjNjmpyAGBkOecyGH7TySkwFoWBRGtu7dX7VK7p7ykl43XWKqVUAvJXg5zVNwJyRhDjmZ87eamqydmWlkLy2Tw7JI+HV4MToCUmUwGAoeWcy4TxeQfnQPUFDCD2Hy+fW+9c7+59iGsNzxbvpVG2CH0Tz3cwhJzzqfEMPMvwi6qmNVWSC5uA1mjNCQDwZSx308F5UH0BHVvaS3iUoItpep1SurBVGs8hIIchGM/AimJf8mb2959rMcmzQvI4KHtAAS3Swg0AGFoMig9bGhg/4KV9bKFPKaUX9h8fVmmPfSkoZxUppeOBAvKfBeSMKsYzR52MZ15UcByMZ/hq8udWkguZgFa98vABAIwu5/ypk3GdDmfQmVj8ci0gH9qeoJyniq1Bfx3kxJ1Hy2kYVuzD38NYQDU5bMHKIXk8oGp1BbTMQh8AYHg554sO9vN7LUSBfkRAXirId1zW4QnKebQIyD8McsZKQG5eC76MZ0o3hY+NnwvjGbZBJfkz/ltfwkDrfI4BAHxRqi9uGz8XqsmhAwJy7iEo54cE5DC8I+MZeLLPo5+yvz3jv/VFDLRuN6V0GNVTQ0opaeWzPpfxm65jTyQAaEb57orJ5d8avmpH2hTCD32q+RQJyPmORVB+YLzF18r7QkAOYzOeAVaxUkgegxZ7QgE9KA8fw4bk0zS9q+AYevHfc5lSKn9cxSRkaVtzGXskAUC1cs4lfDhveFut4RdAwiNUG5ILyHkEQTnfiM+OUb77b1SawsNiPFParr9q9DQZz7Bpw3fpWbXdutVqQC9eadnGTF5GyPDrNE2/p5TKitaLlNJxSumFkw5ApcrE613DF8dYFRoUY7IzATmPoPU6/zXY4poSkFsgAj92ZDwDj7Y/+qkSkgNM06FzwAbsxErWEpr/J6X0KaV0KjAHoCYx8dpyhdIr363Qlgg7L3Us5An2YlEFAxOQA/cxngGe4skheWn3YGUv0BmtqtiG3Wma3kZgfl32TVINAUANcs5nsW1IqyzqhracCchZQQkRBOWDWlpcIyAHvtHBeEZBF5uiknyF/8YNCvRmzwo9tqxMCn4oe0SqLgegEicNXwghOTSiPPs2vG8o2/e6LDZ2HcYyWEBeWkYfCchhJS2PZxR0Mbv4Pm3muzTnfDnH7xWSA3zhs40a7CxVl58JywHYlhiAnjd6AXajBStQsQg337pGPNOHlNKBkziGwbZnuIsK8usKjgWaYzwDPzT8e2x6akiu1TrQMavPqc3rpbBcG3YAtkH1BTCLmPg9dXZZkwsLjPsnIAdWoDsWPGz4RYbTCpXkKi2BXmm5Tq1eRxv2lh/sAWhQzvnTNE2/NHrtjF2hUhF0XSjCYI124j1F3wTkwJPEeOZ9o2dNSM7cWhozX831i4XkAH/yGUetyqTPu5TSJ60EAdiw05isbc1OdEID6nNW2oi6LqzZXuxxT4dKh7VBAvIp9iAXkMP6nBjPwF/FotVRvle/69EhuVbrwACs0KN2ZTLxtzL5owU7AJuQc/7ccEtkk0pQmdiH/JXrwkzeWlTcnwjIXw/yct/knHVFgDUynoEu3luXc/3ip1SSe8gEercneKQRb8vDQezlCABza7Wa3KQSVCS2t1Lpy9wujOv7MWBAflbBcUCPhOTwV8eNnY/Pc/3ip4TkbkhgBD7raEVpifN7VOMAwGyi+qLFqqYdFYVQlTMdCtmAnXiv0bhony8gB54txjPnDZ7JHQUyrFuMkVtrtT7bNiSPCsnjRrRfFDACE6m05kOsrgeAOZ00enYtgIQKpJRKtcpL14INeWUf17bFYvC3g7zcXwTksBGtjmcUx7BuLb6nthuSC42AgRhI06LXKaVrbQUBmEvO+VOj1Ree7WDLos16qxPTtOvU+KhNEZB/GOTlnuecfT7CBsR45mOD59p4hrWJ5/LWurTcRjeIWTw2JHcjAqPQxoZW7dmnHICZtVjltBsTAcD2nGqzzhbsWpzRngEDchWisFkt7k1uPMM6tTimn62KvPjbI/9/WmIBIzmc+8MXZrIIyg9yzt7DAKxVzrl8x9w0uH/ZYaMTYtC82PPwlSv5oNtpmj4983e8sEXig96WramMjdoQLfIF5MBsYjxz2+D3pvEMzxbfsy1mvZdz/vIfhuT28AEGZIsJWrYjKAdgRqcNTmAfmFSCrbHP7jTdxSLsy/jzc5mkn+MvikUJL+Kn/PO+Kv4/Pv+N8SsXHdFG+by4EpDDVp0YzzCa2IKm1e/ZrVeSe5AERqN7Bq0TlAMwl4sGWyerYoUtSCkdD1zhfBWfl5ebfB6/L3yP8PEwflrrBLIOL0sBUM75ov2X0qd4j14OsqDjxramsHUXjYbk8BxnrX7PzrW4dOExe5K7AYHhxAp8aNkiKLdvEQBrk3P+HBNLTfFsB5sV1Sqj7Qddwq+fp2n635xzWax6WsOC1XIMOeeTnHMJIv8ex3i77ePaMNV3lRowID+IZylgS+IePG/s/O8Yz7CqWLja6sLxj3P/BY8JyUdcZQrgwYMelImGi5ikBIB1abFNm2c72Kzjgdp8l4n2f5QQOoLxagOwnPOnOMaykPafUfE+gt2UkvbWlRGQA1vUYncR4xmeLBZX/NrwmZu1inz6UUhudQowMJ9/9GJvEw8UAIwj2p21VoXo2Q42JBZoHg9wvks4/veyt3CLWxyVz/JS8R7V5a1V1K1itM4GVVvaG3WEgPxWQA51iS04jGfoWixGa327mdmP/0eV5G48YFT2JacneymlFqv+AKhXa4Ntz3awOb1XkV8theOfKjieZ4nq8qMBKstVk1ciAvLLQbqX3pU9yAXkUCXjGbrVSbeWm008awvJAR4QXybQi9cmhQBYo+YWX+mUBvPrvIq8VJz9K/Ybbz4c/9pSZfmbCPZ6pJp8ywYMyA9a7DQBgzCeoUvxPulhO5ONdEb9UUguIAJG5sGD3pxa/AHAOsSEb2stCn0Hwvx6rSIv7cj3oz1r13LOJTQoe5Z/7PB1qibfIgE5UBPjGXoUzzm/dfI8frqJv+TBkDwm0UfYFwbgIR486M1OiytlAahWa2GRBZAwv96qyO+ievxopHbJ5bXmnA+nafq5gsNZtxH2y6/V6SAB+SQgh2ZspFJ1jYxnuFdZiBZbbX7o5AxtpNX69INKcuEQMDqfg/So7E+uzSAA69DapJJnO5hRVK70VGxxE0FX99XjD8k5l1DzH521X9/TrnbzYuL+9SAv942AHJrR2ne88QzfiOea686+ZzdW5CUkB3jYKCucGc87bdcBeK4Gg6PdaPUKzKOnCt0rlaBfxDl4EYsGeqHl+gYNGJDr3gaNMJ6hZSmlFymli2ivvtvZxRSSA9TACnM6ZuAOwDq0tmetcS7MIBZg9rLI+DznfDBSe/UfiXNx0FFQ/rpMLFdwHN0TkAMNMJ6hKRGOl++b/0zT9KrDq3e+yedwITnA9/kspFd70RITAJ7DPn7A1FEVeZmU84x8j6Wg/Ly6g1vNYYsH3ZKU0rGAHGiA8QzViz3Hj1JKlxGO9/z9utHv03tD8lhN2dM+UgCrsrqcnp1q0wTAM9mXHJg6CRwF5D8QQflxJxXlPW0PUJ1YkP3rIC/3XEAOTWttPGOuehClU1NZcBYt1f9vmqYP0zS97PzVX+WcN3pP/u2Bf+9GA/jCRCo924nJoRNXGYBVlL1qU0p3DS2yNtaFNYswrPVCi48C8scpQXlsS3bZeIv9sq/rvn3n1y8+Ez709roeYHENNK7B8Yy56mk66niL1PK6fupoG6On2viis4dCci0bAL7ofXUWlBWJp/ZcBOAZLhvaC23UyQaYU+tV5KUqWsj1BEtBeQmYd5s58G8dqShfLwE50CjjmbaMspXHaG630ZnloT3Jra4HCNpR07kdE0MAPFNTLQpL5WAFhwFdiLFSK5PK9ymVY4cWjD5dnLPDOIetsi/5GsX3q4AcaFFTXUWMZ+jUVjqdCskBfsyDB707thgEgGdorVWt8S6sT+shYwnIP1VwHE2KVuUtL7jdFTSsR5zH1vb1XdWNhebQndY+v8zh0ZutVJFP3wnJPSAC/MlnIr1TTQ7AynLOrU0qebaD9Wl5u773DX5+VScmND82/BJUAz/TUkDeyn6+z1EC8gPdJ6AvDT4P2C6Z3mzteeyhkHyEhxqAx7I6jxGYHALgOW4aOnsqyWF9Wq0kv8k5WyS6PkcNt10XNDyDgBzoSEvjGXPV9ORqmwtVvgnJU0oeDgH+yuciIyitBu3JB8CqWmq5LiSHNYj5o1aDMQH5GkVo2Oqi272Uku+FFcSWXQJyoBctbb+iMxY92epz+UOV5ADAeFSTA7CqliaVhCGwHq0uJj7XZn39cs4XpRKo0cO3MP6JBgvIS5eEQwE5dM+iX9i8sv3RVu+9+0JyD4YAf/XS+WAQr2KyAwCeqqXAabeCY4AetDh/dKeKfFatLro1F/oESwH5XjMHvbq7qCBvaTEgsBrjGdis8h17su1zrpIcAFim5ToAq2hq8lhrXViLFhcTn6oGnU8EiecNHrqQ/JEGDchbqi4FVtfaeEaRC607quG5XCU5wCOklNecp9EAACAASURBVOz1wiiE5AA8WYMVVkJyeIbYj7w1JfA6dd1nt/WKoBXsWjz1aBcCcqBHDY5nzFXTso+xVc/WqSQHeByr8xiFlusArOrGmYNhtBiSqyLfgIaryYUNP5BSOhtoO7ojATkMyXgG5ndX0xY994XkVk4CfEtoyEh0lQFgFS2FT77r4HlaDBRVkW9Oi+daSP4dEZC/rvYA1+tNLdVtwMYZz8D8DmtauHpfSG7Tf4BvGTAzEg/aAKzi0lmDYbQ2PjpXRb45UYHbWjWeMdADBgzIzyo4DmA7dJCAef2Sc65q3kC7dQDgayaIAOidLkHwPK0VWKgK3bzWqsktjL9HSulUQA4MxII6mM9VzvmktvP7l5A8paTVOsD9TKQykj37kgOwgpYqL4QhsKKUUmsLKm+1Tt6K1s75jjHQX6WUyn6hb2s6phn9IiAHpmn61NBJUOBCa/ZTSoe1HfPXleRCcoD7mUhlNN7zADyVygsYQ2tzRwLyLYj29h8bO2xjoBAB+YcqDmZ+5zVWtgFb0VJIDq3Zmabp39GlphrarQMA97EiFQCA+7QWkle17+FgWlugICQfMyA/quA4AGAUb1NK17V08BGSAwD3MUEEwJPknFsKorTUhdU19Zyo1fpWtbZAwXfDl/tbQA6MqqXto6Ble6VzQ0pp6+OKr0NyE+IA97MdBaMxQQRAz/ZcXVhZS8+JVxUcw7ByzqVt7W1Dr9+86JdWqCO4EpADX4utQlrx0gWkceWZ4zI62GzN1yG5CXGA++06LwzGwzYAAPdpKUjUan37dBmhNjfTNB26KgCwdSUo/5BSOt7WgWi3DgAAAMBjtVRpqm3q9rV0DYTk/SsB+UFj1aIA0LtfU0pn23iNQnIA4F4ppQNnBoAn0toYqImQfPtauga24uibgBx4jJa2CYGevN5GUC4kBwAAAOCHUkpN7dkce2KzXRYqUINbATnwSJ4dYHs2HpQLyQEAAAB4jJbaUd9UcAzDE0pSgbuyB7n3IgA0YaNBuZAcAHhIU5VCALAFL5x0qJZArB7NLFhorVsCP3QXFeQ6GgBAOzYWlAvJAYCHtFQpBADbICSHegnJ69HStTAG6oeAHADatZGgXEgOAAAAQG8EYzA2ATkAtK0E5UdzvgIhOQAAAAAAPTlwNQGgeR/mDMr/5v0BAAAAAMykpWpebfr78WtK6VI1OQA07zSldD3Hd7qQHAAAAACYRc752JllS8pepvtOPgA0bWeapouU0n7Oea0LGrVbBwAeYsU9AE/1kzMGAFRiL6V06mIAT2BhDdRptwTl6z4yITkA8BCtBgF4qj1nDACoyNuUkv3JgcfacaagWi9TSifrPDghOQAAAAAAvTpLKel2AwDte7fOxW9CcgDgIZ+cGQAAABq3G/uTA/TizpVkYGtb/CYkBwDulXMWkgPwaI1VaF1VcAwAwOa8SikdOd/AQ1JKLxo6OdcVHANsy9oWvwnJAYD7WJEKwFPtO2MAQMVOGwvBgM3y+QDtKIvfDp97tF+H5FafANxPtRGj8UwAAABAT3a0XQeAbpw+t6Pd1yH5Z+8NAEBIDsAKVF4AALV7mVI6cZWAe7TUGUuWB1/arj/rO127dQDgPvYjB+CpWgrJLys4BgBgO96llGwTA3ztWRWpG6a4Bb54+5zvdCE5AHAfD9sAPFVLk0oAwNjOntuiFeiOzljQptNVj9qe5ACPo9qIoeScvecBeCrtCQGAVuw9t0Ur0J2WQnLjGfhT2UrlcJXz8ZeQPOfsxgIAroY/AwCsoqVJJQvEAYDSovVg+LMALBjPQLtWqib/mwsOAHxFFTkAq9h11gCAxlyklF4oHgOMZ5pxPk3Tp9FPwpLFYq/S2W2niiPajt2U0lHO+ewpf/t9IXmpHnvZ8IkAmIPQkJFcuNoAPEVKqaVW65PKCwAglEChTKiv1KYV6ENr45nBt0k8s03k/VJKP0Vovh/fa3s1HueMTuI7/dG+3pMcABjbXc5ZcADAU7XUmtBWYwDAslel+swZgaE1NZ6B+5Rxbs75Iud8knMuQfn/TtP0ZqCtNXef+n1+X0iuTQHAt3w2MgpV5ACsoqXKi5sKjgEAqMtpabvumsCwjGfoToTmpfK+VJf/fZqm96VAqvMrffKU/7OQHOARcs4+GxmFkByAVbQ0qaSKHAD42s5TW7QCXTGeoWsl38g5H0fXhF86DsufVE1+X0juBgP4q1vng0GUVutCcgBW0dKkkm1FAID7vEwpPakCDeiG8QxDiOryk3jPn3f6mp8VkrvBAP5KFTmjsGoegCdLKf1UVms3dOYsDAcAHvIupdRSWAY8k/EMI4rK8hIm/7PDIsGXj/0uV0kO8GNCckZx6koDsILWJpIvKzgG+iJMAejLWYRmwBgOGnuVxjOsTc75stOq8uPH/J++CclzzirJAf5KSM4Iruy9D8CKWptU8n3HuglSAPqyN02TtuswjtYWPBrPsFbRgr1Ulb/p6MwePmbB232V5JP9dwH+wuIhRqCKHIBVNRWSWxQGADzC25RSawsBgdUYz8CX91bZivMf0zTddXA+dkpQ/qP/00MhuZsM4E+2oaB3tznnC1cZgBW9bOjEXVVwDABAGy60XYchGM9AiG7jB50E5SuH5PY0AAixLwf0TBs5AFbSYIWVBeEAwGOVKrQzZwv6ZTwD3+ooKH/1o8VuKskBvs/2E/TuNlrpAMAqWptUso0OAPAUZYL9yBmDbhnPwD06Csq/W00uJAf4Pp+H9O7YFQbgGUwqAQC9O00pvXCVoUs/bMdcGeMZNiaC8tbuka89PSTXWhjgv3we0rMre5EDsKpoW9bS/n3GugDAKkrbdWNn6EyMZ/ZaelXGM2xavOd+bvjEf7fl+kOV5JMWwwB/sDqPnqkiB+A5WltRflPBMQAAbdpLKZ24dtAV4xl4hJzz6TRNHxs+Vw92wPteSC4YAtBunX69j5Y5ALAqrdYBgO9pfR/Tr71LKe3XdUjAMxjPwOMdNfy9LiQHWIUQkU6VbjFWwAPwXPbvAwC+pzwrvO/sDF18r20r0JTWxjNarbM1OefPEZS36MF7/XshuRsOGN3V6CeAbh3Fgw0ArCSldBj7c7bEGBcANudN7GN60tm2nrsWnUP7Gh3PWPTLVuWcLxptu7770AI3leQAD/M5SI/ex0QFADxHa1UXdzoEAcDGlID8bPqz8qy154YfeRsBG9Au4xlYzXGj5+3elusPhuTxANPTKj+ApxIk0psbK94BWBOtCQGA+/w3IF+IYOeXzs7Wmbbr0DTjGVhBzvnTNE3nDZ67/fv+5fcqySc3HjA4q/PoyZ026wCsQ0rpSKt1AOAeP38dkC/knE9i4XYvyrPQva8VqJvxDDxbi0VYT6skDwIiYFS3sSoKenGkLRMAa9Jie1GTSgAwr/Oc8+kP/obDWMDdi1cppVbbzsLIjGfgGRqtJldJDvAEwkR6UlbzX7iiADxXSulFmRBu7ETavw8A5lUC8qMf/Q0xqd5bqHwSz0dAA4xnYG1a66ayc9/39XdD8rjxelrdB/BYFgnRi8es5geAx/rhBHiFPNcBwHweFZAvRDv2jx1dj9Ky2aJ0aEeL4xmfMVQn51zG2beNXZmnheTBhAIwIp999OBJkxUA8AgmlQCAhVXHnEedFWbtpZRa3J8VRmTRL6xPa4VZ37RcF5IDfEsLG3ogIAdgrVJKZe++3QbPqjEtAKzfzaqt03POnxvdE/h73qWU7t3vFKhDSumo0fGMRb/UqrWx9k9f/wshOcC3fO7ROgE5AHNocQ/Rm9j/FABY4/frNE0HEXavJNq0vu/smlyklL6ZgAeq0eJc2c1zPmthTlFo2FLL9YOv/8UPQ3L7kgMDsjqPlgnIAVi7lFIZTL5s8Mx6rgOA9Xp2QL7kJH5fL3bjNQGVaXg8c1bBMcD3NF1w+JhK8snEAjAYleS0SkAOwFxa/X4xlgXYspTSZUopN/LzTYURf7HOgHzRdr23Mezb2KIGqEurnzXmqaldS9vWrrQn+eRGBAaiJSeteiMgB2AOKaUX0zS9bvDk3kZnNADg+Uqn0cN1t/2N7+pfOrs+Z9quQz2MZ2BWLb1Hd77+FyrJAf7KoiBaUyYq/plz1n4JgLm02jbUOBYA1uMuKshnKSrIOZdnjauOrtWOFslQFeMZmEnOuf9267FCsKf9YQAe4uGDlpTv5v3WH0YAqFfDVReTyWkAWItFQD53pdhR/F29eJVSOvYWhO0ynoGNaOb7++tOL4+tJJ/ckMAA7oSNNOSXnPO+7QEAmFmrVRdaEwLA820qIJ9ibNtbqHySUvpm/1Ngo4xnYH7N7kv+lJBcdSXQO59ztKBUj/8j2tEBwGxiUrfVqgvPdQDwfIebDGliG7GPHV03bddhi1JKB6rIge95dEgeq/lunU2gYyZTqd2ietxKUgA24bThs9zysQProXoTnufNlrrt9dZ2fS+lZJE7bEfL956QHDbgKZXkkwAJ6JxW69SqrKT/u+pxADYlpXQ4TdPLRk/4je1IgGmafnISqtHStfhcwTHU4E1UdW9czrlcg8POzue7qGgFNsR4Bjaq2ffrU0Nyq1eAXn2MgRjU5Gqapn/mnA89HAOwYarIgdYJyeux18qB6tr1h60F5AtRwf5+m8cwg7OUks8l2IC414xnYHOa/X57UkgeD4pargM90imDmizC8YMttbcDYGDREnS34TPguQ7m09LC4maC2Z4JBZtzte2AfEl5Hrlp7gw+bFfwBRtz3PB45s54hgaNEZIHNyjQm7uKBoGM7Xyapn8IxwHYlpTSi9IStOELcK47EMyntSrb+Exju+wNz0ri+/yos7P3OlpAAzPpYDxzYTwDm7NKSG7FG9Abi3/YprIy/udpmv4353ykvR8AW9b6wkELH4FlAtrta+ka9FS13IUYH//S2cvSdh3m1fp4QP4GG/TkkDz2RPXQCPRESM6mLYLxv+ec93POp1aJArBtKaXSlvBlwxfiRicW2Ii7hk6zkHz7WroGxmQVyjmfxJZkvdgxDwXz6GQ8o3iGFrX0vPeXe2yVSvLJ6nygI7c5Z4MT5nYTrdTfRMX4Ihj/5MwDUINoS3jS+MVQdcG2tFQRuI4QsKXJ24MKjmF0LV0DIXm9jhpboPMjLyPMA9bEeAa2I7qj7LRy+r8uVPvbir+nhOS/rueQALZKQM463cTESpk4LAH4tYo2ABpx1tLA9h53W3quu26oWqWs7vdcMo+9Vg50TdVJLQWJLVeTNS8Ci92GXofqvUqVBeYppRKU/7ujl3WSUrpUNQprc9H6eCbnrDiVFjXduWmlkLwk7Smlj9M0vVr/IQFs1Ogr9P5ZwTG07lqrdABallI66SBI2tbWJS09A9j/dAaD7it73dJ8UErpUPewrWmtkt+4rmLlPu5sPnonFinaFgKeKcYzzSxafMDoc9S0q6Xvsduv/8WqleRTfIkLyYGWXY3e7lqVMwCMLaVUAox3HZwEVRc/pu30PEYMN1obQx3oILY1h40dr4re+h3FdWqpQ8H37JVwL/ZdB1ZgPANb19I485txzKp7kk+xCveb1B2gIR4+AIBhRQVsD8HR+RYXPrZUdfiigmPoUdOVEytqLSRvLajtQnzHtFZcIySvXHSNOersZb2LkA94IuMZqELT32Erh+RBwAS0yj4vAMDoWt+3b2Gb1VctBSq7sT8w69VSSL6WydcGu1GV976gfPNaO+d3ttFqQ3wGve/sZZ0Nun0HPNel8QxsT0ppv7F78JtxzHNDcvskAK0SkAMAw0opnXWwD/lk+5wnU6m2fqOe09Y6CwrJN++4seNVRd6QnHN5f9109JJ2zbPD08R4pvV9yCdV5DSute4u3yyIfFZIHissz591SADbYfABAAwppVQGsq87ee3brrpoLVQRkq9RVE60tC/uOivAW3vvv1aluTlxb7QWXLTWIYH+2q6/1vUCHqez8YxCLlrW2vfWN2OY51aST25ioEEfrdADAEYUk68fOnnpV9tu+9xga16T7+vV2qKDdb5fW6y6ba2yuWUtnmuV5I3JOZdr9nNnL0vbdfiBCMiNZ2DLYm6hpQXD0ywhedzEV8/9PQAbpIocABhOVPb1tMi5lr37WhoP76hSW6vWqhjXGQK2OKF7LHyaX0rpRaPVfULyBuWcTzubly77ul5UcBxQpRjP9DSvay9yWtbaWOjuvkXu66gkn1STAw25tUIPABhNTChdxuRrD2qqumitQ5GQfA0abSe9tvdqo2OqHdXkG9HihP+tbnNNK5P0dx29npcpJZ9V8JUOxzPn5qhpVSyKfNXY4d+7IHItIXnOuYTkt+v4XQAzs0IPABhKhxNKU2Wr1lsLVuzNvB6tBRh3M4SALVZvqiafUcNV5EKKhsVnW2/7k5/E8xvQ73jGHDUta/H9e+/z3roqySc3NdCA21jUAwAwhE4nlM4rq/hrsu10BcfQrAhZW6vIn6OVdKvV5Lbfmk+r420heeNyzqVF+ceOXtKOzq3whfEM1CXuyW621llnSH7RWWsboD8mQwCAYXQ6oTRVuEC7xX1sVdM+z3GD95WQ/E+lm8JBLQfTi5RSWTjystGXIyTvw1FnnU73UkrmsRhap+OZOwWnNK7V76Z5K8ljw3Nf3ECt7qzCBQBG0XFA/kttVRcxFm5tUt7ezCuKxQUtnru1h4Cxj2arxRLmr9Yo7otWx9s3qvn6EN/HvbVdf2tRD6PqeDxz6nuHVqWUjhtdFHkTzwnfWGcl+RSDDNXkQI1OH/ogBADoSVTz9TihdFdxsNVky3XV5Cs5afTemqvjwcVMv3duKjTX66zh7xxV5B2JxTvvO3tZZ76vGU1K6ajT8cythXq0KqX0ouEuCA8+7601JFdNDlSq5glVAIC1iZXd/+5wQqk4rnjRo72ZBxAVTW8bfKW3M1YstRwwqtBcgwgyXjX8EnSc60zOuTwL3XT0qna9TxlJjGc+dDqeOVHERcO6XBS57krySTU5UCFV5ABA91JKZdD6a6ev8yrnXPMEsb2Zx9BqSDHn+7PVSvKFi6iKYQWxcKTlxTZlAclcXRbYrt7arr+KTkHQrdIxwXgG6hQdmFpss/6HnPODY5a1h+SqyYHKqCIHALpWAp6UUpnkf93x66x6D+io0m1tX/IFbVwfIaVUWgvuVX+g95stJI85oI9z/f4N2Img3D3wRHHOWm+F2/oiDx4Qix9+7uz8nFnUQ6/ivX1pPAP1ia5BLXbTWvjuWGWOSvJJNTlQEVXkAEC3oqrouuHw7jHeN1Lp12rYoo3rD0S1/buqD/L75n5vth407rkHnqaTgHxy3fuWcy7z01cdvcgd71l6ZDwD9YquQR8av0TfHavMEpKrJgcqceuzCADoUbQjPO14//GF8jx3Useh/FDLezO/ikppvhJhYMsh8M3ci4ajdWjrhRKvosUrP7AUkLceZmi1Poajzgq5XsZ+zdC8pfbqxjNQoQjIWx7jLmw+JJ++DJJOGm43B/ThRBU5ANCbqGq9brzl2WMdt/I8F/uctTwR/y5a6RE6qZbdVPDbQ9vq14Ly7+soIJ8sqB9DbIfS23fbrxFcQLOWxjM9t1dfODI/TWuWAvLWF7B8/NH9N1tIHqyQAbblNioaAAC6sFRt8Vu0yO7dxwieW9J6UPjBxPtf9BAGbuo92UvgKCh/QGcB+WQ/8nHEs8R5Zy/Y5xRNivHMxWDjmR4qcRlILJz+vZMODz983ps1JI+A6mbOvwPgAapgAIBuRCvsT4NUW0xRkd3i81wPocvl6EH50oKU1sPAm6iinF20re5l/qcE5ZcRCtNnQH6+qXuDahx31vF0L7bdgWYsjWdeDXLVWh3PMLD4bml9D/KFu8cUUc5dST7FQwjAJl1ZpQcA9KCs4k4plcmkd53v1fe1JtsSdtByfYr3WQkIDys4lo1bCgN7WJCy6UrDngKblxaMfBHn4FNHAfmkCnc88UzRW1j1NlpWQ9WMZ6B+KaUXZZFoZ1u6Pep5b/aQPIKqj3P/PQBLrNIDAJq2NJn0YZBWhMvOG2yzvqyHavIygfnv0fYoL5NDnVXLbjQIjEqN1heJLNsbecHI9OWeOO6o3ebCjUX1Y4rr/ktnL/5M1wtqNfh45n3j4xkGEs9717FItCePWsC7iUryKarJexooAfV6r20aANCiaPF8PPBk0hStUFvvRtZTNW3Zo3yICfioxrvurJ30NqqXemv/u1gwMlQQtbRn7K8VHM66aVE9sJzzSWdbg+7qjEBNjGf+UMYzJxUcB3xX6RYU1eO/dtjl4eqxGdFGQvI4GA+hwNzuPIQAAK2JwelZtLP9ddDJpIXD1tsSdrY38xRtx7tuOx17ZP7W2eTQtkKT006LJMp9cD1CVXlUE/W6Z+ztY/ampHtHnX1OvRq54wV1MJ75i+bHM/QtWqufRbeg3qrHFx6dEW2qknyKgdLtBv8+YDzHHkIAgBbERNJpVFn8HgHMSHv03efnCJh70Nsi8VJd/XuEyd0o1eMppevYI7Mnt9tqJx3jsV6LJHajqvwyWvN3Je6HXquJFiyqZ7GYrbf3wlmPn0vUzXjmXj2NZ+hMPOuVTkH/ifu1V08aC20sJI+Bkn2CgblcWREOANQqVmsfRcvexUTS28GrLJZ9zDl3E6x1uDfzwrvy/m29Ym2peuK3jtqrL9t2+NNrNflCqbj5T3yeNx9Kxf1wEfdDr9VEkypylsUzx1VHJ2VH23XmZjzzQ12NZ+jDV4tZfuu0U9DXnjQW+ttGDimU9D6l9HGQCwFsVut7VwIAnYi21CU42V/6MXn0sNtOF1SfdlihPC1V05Zw4TTnfFHBMT1KBJrH8X7rtdKphNNbvSalSKJMxnX6/l9WKnBep5TOSzi1rer9VcU+/CedB+PLVJHztcNoDd3L98HLsl2CkI51MJ55sl7HMzQmnu8W9+zhgN0dnrwoMuWc5zuc+/7ClH7q7AEE2L5fcs4GvAAMJwZAvzXyukug1lSA8AMv4mfZKEHDOpVA76DHtoQDjX1vY0HAWa1bH8Vn5VHnbQUXqhgbDTr3cxOVnBc5508VHM83YqHIYSwWGSnsKBOmW6v6b+15Led8UMFxbER0Rvl3Zy/rHy09VxnPbJXxzHp0MZ6JbZVaWeB4Hs+Zo1v+vt6Xuf7hTfUh+fTlhjuOPY4Anmurg10A2KbGJpXgPk8exLakscmmdfgYVcwX2w7M4/PxMH5GCQPLJO2LWhYrDD73swjML7c9aR7VgIt7ocftBR7jX9vseiEkr1tsv9HTIqqbnPN+BcfxKMYzdKCL8cyA4xb6s9L331ZC8unLTXdpZRKwBv9sra0dAKyLSSUa9z7n3PWWOYN3UruJaqvrOAfXc4W3X7UEPRi4kqK6Dlux/+Ho7Vnv4j5Y3A+f5xjDxufN/lJl4IF5tz9sPfQVktct7p3rzj6rmnnGMp6hcd2MZ4TkdGClnGije5J/5SgeQLQAAFb1XkAOANCkj70H5NNYezPfZ+/rqtWU0hTt2dfVHlEA+Ke7aHtfmyPhxx/zXi+X369xL0xLAfpzaK/5fd1/1/A88V3d22fV25TShTkzmNUQ4xloxNWq33lbC8nL/kyxOkXbdWAVZXLNPuQAAO25ieBsFKcR0gixvthVWTyL0xr3hC+TVSml0ob/VQWHU6Mdiz1m9b71PWLZjPis+qWzRW0XKaVqtuCAzow2noHarXw//s82X1jOuUwWXG3zGIBmHXrQBwBozt1oz3HxWi3uZE63tbVZ/8px3PuwSRbW8yTxOXrT0Vkri3Ca3ycZKlSeaQ7MS0M1ypZTK3cq22pIHg4NloAn+sVqcACA5iwmlNbVarsZsUD81luWmVTd6jPueWElm3YswGAFR53NU7+KVvLAegjIoS7PXiy89ZA8PlB8WQOPdVN5lQQAAPc7GHyho3Evcyj7713UfmZ1EmTDPrZwX1CfeE7pbc7ptLRdr+A4oHV3xjNQnWePsWuoJJ/iwfW8gkMB6nYX3ScAAGjLm9EnlMp+p8a9rNldY4sveqvQpE63FiXxHB0u6tF2HdbjePTxDFTmfYyxn6WKkDwcd7bvC7B+xyO25wQAaFwJyE3OfmFvZtbptKXxURxr1a3h6cKRNrisQW/bg75MKenKCKsznoG63Kyr80s1IflS23UTBsB9zj2MAAA0x4TSEtuNsUZNbkMVnwcfKzgU+rSWiiLo9Pv6XUppv4LjgNYYz0B91rYosqZK8sW+L1YVA1+78dkAANAcE0r3iO3GhIQ8R2tt1r92FC2xYZ3KwhHzBqxNfF+/7+yMnqWUfqrgOKAVxjNQn5/XufVBVSH59OeqYvu0AQt32qUBADTHhNL3CQl5jpOW98SMsV1vrYzZrrt4T8G6nXT2fb23rva0MADjGahP6TZ8us6jqi4kD/YnBxaOWp4AAgAYkAmlH9B2nWf4uO6JoW3QSZA1O2xpf37asbSopydvU0oH3obwXcYzUJ9Zug1XGZJbVQyE99HeCgCANphQeqTYN/eXJg6WWtz2tLgiPit6a2XM5r2xDzlzikU9vX1fX2i7Dg8ynoH63MWiyLV3G661knyKFaBaJcG4ruwnBgDQjDJo/YcJpafJOZ/Yn5wnmGViaJtizOceYFXnvnfYhPi+7qnr6U7Zn7yC44CaGM9AvQ7m6hpUbUg+/bmy/ucKDgXYrBuLZAAAmnEXg1Zb5KzmyHZjPMKbju8x9wCrKFsP2LaCTeqt6+mrlJJ7CL4wnoF6zToOqjokn74E5WWvrfMKDgXYjLvYh7yrCgkAgE6VYGvfhNLqlvYnt90YD+m6WjbugQNBOU9w09PWA7QhKthOOrtcpymlFxUcB2xT+U55YTwDVZp9+4PqQ/Lpy0OIVcUwjkMPJQAATfg4Z9uzkcTzr05K3GeIalmLRXiCm/jusbCejYtirp62iNB2ndF99J0C1Xq/iYXCTYTkwapi6N+b2GYBAIC6lQFrd/sjbVtXuQAAC/ZJREFUb1M8B78Z9wxwj6GqZWOxyIGgnO8QkFOD3hb0vEwp9VYhD49hPAP1Kp20jjdxdM2E5FYVQ/c2sjIIAIBnuYuFjRsZsI4mnocF5UyjhoGCcr5DQE4Vluaoe/IupbTvHcYgjGegbueb7KTVUiW5wRL0a2MrgwAAWNltBBQWNs4ozu/7bl8gjzF0GGjuh3sIyKlKzvmiw+/qs5TSTxUcB8zpxngGqvZ+01tNNRWST38OloZpNwYDuBphjz0AgMaV/fr2YzzGzGIB6bnzPCRhoKCcv3JPUKuTWEDYi714TdCr8/g+MZ6BOm2lw0NzIfn052o9LeigfWWwe+g6AgBUqwRUP9uvb/NiIamgfCzCwCUxib0f54UxuSeoVrwve5vTeptSOqjgOGCdFu3Vj3yfQLXebKvDQ5Mh+WSvNuiBwS4AQN0Wz2unrtN2RFBu3DsG46N75Jw/RUW5oHw8H90T1C4W8/zS2YW60HadjtxENyzt1aFOZRHLP7Z5jzYbkk9/BuW9PYjACG4NdgEAqvZLzll79QpYID4EAfl3xHk50FlhKOc6mNCKnPNJZwt5dsr+5BUcBzzXYjzzyZmEKt3UsKVb0yH59OeDiIEStKOsDjLYBQCo002s5LYnZUUiKP+X/Zm7dC4g/7FyfqKzgkKJ/r2Jaw0tOezsO/pVSmnj+8LCmhjPQP0WY6CtL2JpPiSf7NUGLbmLDz8VSQAAdblTPV63nPNFVNMKyvvx3v6YTxMT3haM9Gnr7TZhVTHJ31sgd5JSelHBccBjGc9AG36uaQzURUg+CcqhBQJyAIA6fYw2Z6otKhfP0i/sz9y8u6iWVaW3gqUFI+6DflyVzzbzBbQs53waz1S9KG3XL7wpaYTxDNRv0eXhtKYj7SYknwTlUDMBOQBAfW6nafpn7Ptqr75GRNvp/VKFPPq5aNRtjI1Uyz5DjC0P3AddKFV/thygF0eddbrYSykJHamZ8Qy04X2t+VBXIfkkKIcaCcgBAOpyFy3OStXepWvTpqhC1na6LYsqJ2OjNYgFI+6Ddi2CDQEc3YjFHoedXdF3KaX9Co4DlhnPQBsWz3vHtS6I7C4kn/4Myn+p4FBgdDcmgQAAqnEX46QXtbU4YzXRdno/WhVTr8VE7qFq2fWL++BFZ22Oe/c+5goEG3Qn3te9dbm4SCn9VMFxgPEMtOOXFp73ugzJpy8PJGUl6psKDgVGdRMV5FrdAABs1/Jk0omQri/lebu0Ki4h7OjnolJXMTlkIndGUVV+qKq8etVXE8GanMS8WC924zXBthjPQDvK+Ofvrdyr3Ybk05dB0pmgHLZiEZB7YAEA2B6TSQOJEPbvqsqrsaget3B4g5aqyu1VXp9ftMVlFPHMddTZy32bUuqtlTz1M56BdiwWQzY1/uk6JJ/+DMqtJIbN+SggBwDYqluTSWNaqip/Ywy8VR9Vj2/P0l7l/7BopAofF9VEo58IxhJbD/a2HeiZtutsyG10STKegfqV+/VNq4shuw/Jpz9XEh+YJIDZndtnDwBga66WBqcmkwYWi8VV027eTVRPHKoe374SUMWikX/F5B2bdeV+YHSxOKSnxTo7JSiv4Djo1/J45tR4Bqq2HI43+90wREg+/bl676Cz/WCgJqV1Wm+tpAAAancXQejfo62ZiUv+sFRN+/eo5GQ+iwmifa2k61MKJ8rkXXRYEJbPb3E/HLgf4A9HnRVuvUopHVdwHPTDeAbaUhaz/Kv1cHxhmJB8EpTDnN5onQYAsFHnMTD9qQShqvR4SLRgL3uI/lPr6bW7W9pn2YRu5co1EpbPqotqIli3eEbrLVQ+SSm9qOA4aJvxDLTjLu7ZxWKWi16u3VAh+fTnavr9uKDA85QPx38YAAMAzO4uqoFLuPO/pYNPTwNT5lcqOqP19D9Vlj/bbdyLLywWbs9XYbmFI8+3aKsuHIcHxL3R03dvabvuOZSnMp6B9nyMRZA/xT3b3WKWv1VwDFtRLmhKqVSW/zrgy4d1KB0Z7C0GADCf25iAvDSBxLpE++PLqAArAe9hTHbzYyUMPBME9iGu41lK6SDaIb8e/Zw8wV18P52YE4BHK58znzr6zt1LKZ1YLMYPGM9Aez7GfVu2LPrc+/UbNiSfvgyITiMovzApAE9SOjEcj/AhCQCwQWURYhmfXMZEkuCB2cT7qywe/ymC8tIKds8Z/8YiDDyNLdzozNLCkeMIsY7cCw/6Y6HIKJOmsE7lnkkple/b3zo6se9SShe+H1liPAPt+e9ilrhvh3rGGzokn2IwlFLajzeBQRD82M9lgYnzBADwLDdRTbSYRLoWOLAN8b5bVNTuR0BYJvF3B78gHyMIVDU+iLgXylj3NDotHLsX/nCzFIwLO+AZYh76/TRNbzs6jxfl+cFz7JCMZ6BNV1/dt0M/3w0fkk+xgj7aa51qrwUPuov26pdOEQDAD93GpNEUg8/Fn59V21CreG+WYPB4wMD8Lu7RYVoL8rCYLFy+Fw7iXng5yGn7uLgfRp84hRmcxGdKL8Vau/Gajis4FtbLeAbadRVHXu7Vz3HvfvJc962Uc67tmLYqpXQUYbn26/CnqwjITRQBQEWiTfK+a1IHiwnpVVTVLkLCg47Gy1dLbQXdv/xQfO8eLP30EnL9t6LInrHAJhnP1MXz0Ljief/F6OehYRavrEhIfo9YJXym/Tr84Zec84lTAQAATH8NzfeXfmoPzv/SEtQkMOsSnQkPYmJ5v4G5pKule+HavQAAwKiE5A+IVWzarzMy7dUBAIBHWaoEe/HVzzRtJkS/iVaCk5agbFsUXyzuieU/p5lbtt9F+D1FEP4p7otrLTYBAOCvhOQ/kFI6jKpy7dcZSdl/7Eh7dQAAAAAAAHrzP67o98VeTPtLG91Dz8qq8zc5Z/uPAwAAAAAA0CUh+SOUdlQ557K/1M8RIkKPykKQ/ZzzmasLAAAAAABAr7Rbf6KU0otovz7nHlKwSWXhx0nO+dRZBwAAAAAAoHdC8hWllI5LsGivchp3FXuPf3IhAQAAAAAAGIGQ/BmiqrxU375q9kUwqrsIxy+8AwAAAAAAABiJPcmfIfYqP5ym6V/TNN02+0IYzftpml4IyAEAAAAAABiRSvI1SSn9NE1TacH+rosXRI9uyns053zp6gIAAAAAADAqIfmaacFOhe4iHD9zcQAAAAAAABidkHwmKaWDCMv3unyBtOKX8j7MOX92xQAAAAAAAEBIPruU0tE0TSfTNO12/lKpy3l535V9810XAAAAAAAA+JOQfAOW9isvPzvdv2C26SrCcfuOAwAAAAAAwD2E5BskLGdGwnEAAAAAAAB4BCH5FgjLWSPhOAAAAAAAADyBkHyLhOU8g3AcAAAAAAAAViAkr8BSWH40TdPu6OeD7zqfpulMOA4AAAAAAACrEZJXJqV0FIH53ujngv+6m6bpIirHPzktAAAAAAAAsDoheaVSSgcRlr8a/VwM7HaaptOoHP88+skAAAAAAACAdRCSVy6l9CLasGvFPo6PEYxfjH4iAAAAAAAAYN2E5A1JKR1GWK66vD+lavwswnEt1QEAAAAAAGAmQvIGRXX5YbRjV13ersVe4xeqxgEAAAAAAGAzhOSNSyntR3X5ocC8GR+XwnF7jQMAAAAAAMAGCck7IjCvmmAcAAAAAAAAKiAk71QE5ofxszf6+diCRSv1S8E4AAAAAAAA1ENIPoDYw/wgAvPy587o52QmN0uh+GWXrxAAAAAAAAAaJyQf0FKVeQnMX45+Pp7hNkJx1eIAAAAAAADQCCE5JTQvYfl+hOYqzR92NU3TdYTi1znnT7UeKAAAAAAAAHA/ITnfiPbs+0vB+f6AwflNBOLXEYhrnw4AAAAAAAAdEJLzKCmln5ZC85+WQvTWw/MShn9aCsQ/5ZyvKzgu4P/buYMTAGEgCIAXG7EFS7B1O7GElCDCCRLEj6iPzEDIN+Seyx4AAAAAAMALhOQ8luvaIwP087030seff3jJe22PdekAAAAAAADQHyE5nyilTNlAj1MT/cp8854j6G7VbIEf9vXo1WQBAAAAAACAlpAcAAAAAAAAgG4MRg0AAAAAAABAFyJiAzgMYED+hcISAAAAAElFTkSuQmCC;" vertex="1" parent="1">
          <mxGeometry x="330" y="160" width="190" height="31.74" as="geometry" />
        </mxCell>
        <mxCell id="IfkOpMCxYSYoQuJ_WlAo-7" value="" style="shape=cylinder3;whiteSpace=wrap;html=1;boundedLbl=1;backgroundOutline=1;size=15;" vertex="1" parent="1">
          <mxGeometry x="490" y="70" width="60" height="80" as="geometry" />
        </mxCell>
        <mxCell id="IfkOpMCxYSYoQuJ_WlAo-11" value="" style="shape=image;aspect=fixed;image=data:image/jpeg,/9j/4AAQSkZJRgABAQAAAQABAAD/4gKgSUNDX1BST0ZJTEUAAQEAAAKQbGNtcwQwAABtbnRyUkdCIFhZWiAAAAAAAAAAAAAAAABhY3NwQVBQTAAAAAAAAAAAAAAAAAAAAAAAAAAAAAAAAAAA9tYAAQAAAADTLWxjbXMAAAAAAAAAAAAAAAAAAAAAAAAAAAAAAAAAAAAAAAAAAAAAAAAAAAAAAAAAAAAAAAtkZXNjAAABCAAAADhjcHJ0AAABQAAAAE53dHB0AAABkAAAABRjaGFkAAABpAAAACxyWFlaAAAB0AAAABRiWFlaAAAB5AAAABRnWFlaAAAB+AAAABRyVFJDAAACDAAAACBnVFJDAAACLAAAACBiVFJDAAACTAAAACBjaHJtAAACbAAAACRtbHVjAAAAAAAAAAEAAAAMZW5VUwAAABwAAAAcAHMAUgBHAEIAIABiAHUAaQBsAHQALQBpAG4AAG1sdWMAAAAAAAAAAQAAAAxlblVTAAAAMgAAABwATgBvACAAYwBvAHAAeQByAGkAZwBoAHQALAAgAHUAcwBlACAAZgByAGUAZQBsAHkAAAAAWFlaIAAAAAAAAPbWAAEAAAAA0y1zZjMyAAAAAAABDEoAAAXj///zKgAAB5sAAP2H///7ov///aMAAAPYAADAlFhZWiAAAAAAAABvlAAAOO4AAAOQWFlaIAAAAAAAACSdAAAPgwAAtr5YWVogAAAAAAAAYqUAALeQAAAY3nBhcmEAAAAAAAMAAAACZmYAAPKnAAANWQAAE9AAAApbcGFyYQAAAAAAAwAAAAJmZgAA8qcAAA1ZAAAT0AAACltwYXJhAAAAAAADAAAAAmZmAADypwAADVkAABPQAAAKW2Nocm0AAAAAAAMAAAAAo9cAAFR7AABMzQAAmZoAACZmAAAPXP/bAEMABQMEBAQDBQQEBAUFBQYHDAgHBwcHDwsLCQwRDxISEQ8RERMWHBcTFBoVEREYIRgaHR0fHx8TFyIkIh4kHB4fHv/bAEMBBQUFBwYHDggIDh4UERQeHh4eHh4eHh4eHh4eHh4eHh4eHh4eHh4eHh4eHh4eHh4eHh4eHh4eHh4eHh4eHh4eHv/CABEIAZABkAMBIgACEQEDEQH/xAAcAAEAAgIDAQAAAAAAAAAAAAAABgcEBQIDCAH/xAAaAQEAAwEBAQAAAAAAAAAAAAAAAQMEAgUG/9oADAMBAAIQAxAAAAG5QAAAAAAAAAAAAAAAAAAAAAAAAAAAAAAAAAAAAAAAAAAAAAAAAAAAAAAAAAAAEXrWE5gcZt/z9FZ8be+4L6pkMthmiu2M7zNZvrZLMY2T0AAAAAAAAAAAAAAAAAEVNnS+qs3z74JMpBx+a9KlrggO72VS4eJrVfaFJ+vlnHCV5mW2mbSz649zDfikLr9rH2CQAAAAAAAAAAAAAA4mjonJszztGR3nx/rOLD46jOu38S9rJaY8XV0U9alb+1ktHL1ed4m3uE8wPsm9VfR+f6GQ6Y/Q4AAAAAAAAAAAAAAEGnNDQ7LF0/P4r2s/Hjur47luhg0m9DPjRyythbXBVhfauqy19tYNvOh3uqitdloZNX7/ABXTjE1e0yWVn6J86Xl9x4e5GjgAAAAAAAAAAAdZ2KsgnM+jfMeTpuOpNHtzxx6MzaRLNy2WnnV7u/E1SdrM/LZ2Djo+YsxltHqNHHbo8fTezl+8OzL9Gjrs+pui6v1G8172+q92g3/cAAAAAAAAAAKotfzfD7Mq344ttufKknuO6QG7z24Wd21zvzybSQ/M0cZ+sufac1efej0R08zQeyvD71FRbXBinVttZNUzyqe3pmsaw3a/j115PVg6KCdmynJ9K+Wr+3YZeO+QAAAAAAAAHm70jTUTpunF2OL29X0bDA6yXDs8yE5+YJH91pdcTWMaXa257Ym0Ql+O8+fXAQoCOyeMapsSMx+QTFiTylLuy2VjXVu1L02+W5R6OhuuivTOvxswWUgAAAAAAAANVtR5dkFrUVTqkGHx51233ptyororGvfSd207vLJ3889FXXPWt2WmuBdXs/QFD+ka+q7rr0To6NVIdtsbLm2H2Gc1RWnrfp21ItHjzPqzZW519mjzwkAAAAAAAAAA12xFNRL0l5x4m/Rh0gMnG7rOcp8+bM8Dru6awLZ2HVzPuBl4ee0M9oEHrad7jVTlTUvrAAAAAAAAAAAAAUPfFeQ3m2rmxsOkOZAq2M3xQ+mmN48+31l0A3cYvKKO7dmS8IDFKauijvRO7MHcAAAAAAAAAAAAANTthQF3UFfuO8KuwGt2QqHquNagk7K4CJAQac073zILTjsi25wkAAAAAAAAAAAAAB51vijbszW94z2gAAAAAKCvuhrq/RPM10gAAAAAAAAAAAAAAUNbFQW9mu2Iz2AAAAAAaapJ3Eu4vcbswAAAAAAAAAAAAB80hvEC0MIBe1H3Pg17wRAAAAADHyNLx3E4/Kq06emECkHo4t6+fZAAAAAAAAAAOPX57haMAgSGZhcvg+CbCn8WkXi+nKxrygAAAAIpKYVnv40rc9P28Y/x99LFlzGCfEX1OPJsol6NY2TIAAAAAAACJedvRFFQ1zt6RsceQU6uvoy1WrTW5VX3nP6MU7sJqtJXffEz1DO2JlyKCVonwJehONMTOJaSNUX4fR0bjVHDB2PyLov9ztfp87lx7Mnri+pfEZcBIAAAAAACI1Ra9UTEvhs2jtnEU2es7sHqZpjcW8o5v9fdjwUz6L8sTSbrlHvm/wCETo28Gjb/AJojqS98on8mmoieWXiccnpZvz7hR386e3nfhkkfkcc05Lml0Rl1VgSAAAAAAAiNUWvVExM8bJX11P1z2BZb5Bqevop09kq10+05OQvqAAAAAafcdUKu699HMumRaTljV3dsowZDpyI5I453xc0uiMupsCQAAAAAAERqi16oRMxorcOY1uRlIBIAAAAcTkxMEztbxRDr7BhZHaiQmEckcc56uaXRGXU2BIAAAAAADTedfUcRhXGXH9TZxOucWz++d5y1n2Y2n3VDbNSNt81Q2nDXDO68UdvUAAAB8xTLaTWcdSiJ7a3OO9pvSJAAAAAAAAAajbit4veCHnDXeoB5eyPRermKO7rb18q37Z7gIiaUCLpQlF+Mq7IQzjYncmrum588oL56Sz4nzhvrxQraYbkBIAAAAAAAAAAAAAAAAAAAAAAAAAAAAAAAAAAAAAAAAAAAAAAAAAAAAAAD/8QAMRAAAQQCAAQDBwQCAwAAAAAABAECAwUABhESFEAQEyAVFiEwMTU2IiMkUCVwBzM0/9oACAEBAAEFAv8Ab1zsYgD5ttsn47Y7l2e8F03I9ot2KFuD+YMmAuD+ps72uAWw2wyZtLAOVYQhAQYiomc+SRwSZsNfWxhVFqXWPrtuFkweeIiL+lsrAWvgt9hNsHga+RLkVWEMy1h6OxDmQgXx20jnLpa+HojdegfnCzpiKPZoC/6TYLiGrgYw+8Pra0YBuL9Noj/a1WXnrPEhetuR/CRjJGW9Gsea1sTxca5HN/oLqxirAhYC7uyGghEg8F+CX7eas053x8CH+VBQt5rSD0bBU+YmnXSxSd+q8EvTZbi2rhIwBPBVRMkfxyzajq/UV/yPhbO5azWU/novBWvRfRslf00+qWXtCu77czukqdQE/VjntTHSrj3o1J7cKLC7tkkVcZIDP7xm57xm4XeFEj1ZvRSRXorsHLGIxr3JjZUxFRcNHaULrZTq2877eSVmuAGoKBLLwbLaAx5Lej8v860nG1x65FQ17Miqq+POhCzoQsWvBXHUtauTa4OqG0xoqV9zJE2O6CdkBY82NlXNnhRljSk9ZVd6XMyW6LvJXYnnmSw0Mq4yiGRAh4RR/knUwUkktAzDaycVBbMyDLQ+I4fQ5VfT9y9zWNtdtjY6W3uTHefdpkEMpEqUheOpTETksQshujGYNsUaZFe1z0YeE/Gua70SEDx5LbV0ay7EG3CNgmerj7El0VWdNnsMvC6wodgch7E6m7iwDarCBai1Fs4u23ywcxKqAHy4igkRF4oiJx8IBpJcWqAfhWu1K47VYnq/VbBMXXrfJKm2hzorLI6W1myHWbR+Q6nOuD6zWpkdDVR46uY1skb418ERESWeGLC/ZROCkSVdnBK2aDtdmkWe/wCjlTFFkyKYkR1VZNL8AxeOWNhACw24LnzzmOdBLJDJVldYH4eVFx8L4+QgpzmtwQ+aFa28bIrmtkaWOsKzSMhiOtp53NgldnSPyaF8WafIsmv9rssfkbBj2Y9EVtD9zAg8x1iU0MSaV80pT1WTVQKkseFWpLqTl6b0vXgj3K5xYFPHrULuePWj3Kr2o9uxxrFXgonFjebEREy0X46cxWa/2u/Bq0gCTngydM1/42kLEjj25zuXCmK2TA2KiarGrQfSRErHvarXJkLeSOuVUsM3Fn+Ir8ROCY/nLNDhaML2toHGeDLHPXHRPbIx6cWamnG+y2CQ4UiCUeRfjiRR8a4GY2UeFsMO22hkRz3Oe7BLAwRayZxdfsFY+R7mtdjWMb4UFXJ5ubZ9gq0+OHk/DR6pUd2+wU0VpARCXWEwlxyZqf3/AMJoo5mvpa9yx09exYo2oiJwzc6l5LPCmrZrMyCNkMMjcJAEJX2JX4MAIOvhtv2GvkZGhBjn5rmuSEqxqNb3BwYxsNnqMrF1ziy+9MX08L3Xgyk1mojtZAhRw4fBfr6N1cqU1PSmWiVGuBAL3jv4W0emN3DOKZxyzIhHD0QiCKZFzimOdw9W9yogOiRuZSd7vIyw3FOT1dZ6bOpt4rKa9ukdPNNO/BbeyGSJ+wXMNIHIBX+ncSfPtqYbo6vvd7G82p0WfmD9W0huFtaeljlgmo697LAV4ZWvBqFVekqZo42uQOsdg763g6mr0qby7j1WIUB48lRd17kj2afKagQab1boR5VT/wAfjcBu/BTotm7DeZuY/W4Ono+/2T+LsvYXiqZsTURre/3RvLsA7vMg+cqoiU383Z/6Devvlb9u+dazeXBpreOw/wBBu0nPf1n27511JzRaGnG7/oLyZS7mtXiN80l/lwnfELQ14XXekW9ZBk+11UeE7inLQReafVL860f+l6czKE5tdZQbZVyYPcVk/cKvBLHZ64XDNrspVJLKJ9Gtw8glYv7/AM093MTjk5XeAxRIyh7VZQrXbRXE41Uc3sppGRRX12TZSeqrdC4IFf5XzFXgjl5nPc1jSnNcT6aO6JrJR5WTwdjtyqmvegcfiiNamSwMegs8oRNdM2ZfmGO5RstznFzQjIicreE47VT6ejT+K672O4fjgQchbZopYXYMznl8S2cW19kSFke1mo73uxm1icE2qvxuy1a57x1We8NTnvDU57xVOLsdVj9nrEz3rAw/Z4JYy7l0w4TOK+JbPCNj5FIHfA3Tvx3sdw/HNa+r2Ne27DHggAT9Hi749gKnCDxnTjFWRRyyta1qXWad+O9juH45rX1zYG8QAF/Q8hrZMnlSJGvRzAIOpKWkbi0j8WlJz2MXnsgzPZJmeyTc9km57IMz2MXiUpOJSPxKNMtQmh4KvGCMhr5MnnSN0y/s0yfuZdZp3472O4fjmtfXCYkngbzDESqjp+OHYsnAfXR+Dfm246kBiS8iif8Ao44X/wB08nMldD5Q+XWad+O9juH45rX18LSvQrJYpYJOpdkkjpMrquSVzURrfmyPRiWAfmPTmik6l2OV0rwgeC+F1mnfjvY7h+Oa19fF7WvRQRFyIeCL58kyNxyq5cexj06UfGMYz0XWad+O9juH45rX17FVRMdO1MfK53yrrNO/HexuhOuqxpXhzwzpI3zZM89+dQudRnUNzqGZ57M86PPOjzzo889mdQzOoTFIXFnfiyPX5ksjImlzOLmohHBVPZXdELZ4fRWgDoj52ZHYxLjCYH9s8mBmSWMSZLYTOwCjtLB1HQi1q9qZWAGYVqIL8J1A5iy0lyPkjrAdW2BCY2ykz2niWUWe0YMQ8bOuGzrhc64bOuFzrhcU8bFsYMWyhz2njrKTHWBC4xx5CxUlyRg2onvwXUAmYFV14feyhiTZLSVMmO1mnXHajWKrtPr+D9Njz3Mz3Mz3Mz3Mz3MxmmsxungcG6jWIrdZp0yKkqY0iDEh/wBtf//EACwRAAEEAQMDAwMEAwAAAAAAAAEAAgMREgQhMRATMCAiQDJBURQjQlAzUmH/2gAIAQMBAT8B/vYoDJuv0f8A1P0paLVfEigdIo9OxiYO3MW9NUfbj+UYWVVKbSlu7fhQQ9wpopAKbacHpLvK0Jw6aqD+Q+AFBHgxGWNvJX6mR/8AjCdFK824rsy/7LsS3la70zPqFpuojcOViHDZSMwcR5qtBpBTu676kx0I+pqbNHwCg4HpYRmYPunvg/Fqn3bBSkzc73cotI8gTM2DZqZMCaPKc4NCJL12WnhYINCxQhFWUAW7tTJctipJGs5Re938U8EHfxhMIc21Ps9qJzctReOygvLZP566m9lprtSCigcpAgFO7J58mn1GGx4WpeHUR0Ev5RkAGyc8no1xCZLY3XcA4TjaioSC1Pqb9rfMOr+PRH1fz8AcdXtpN0j3NtBm9H0E38BnHo3HBQFdXcfBj8EnwY/BOKA+DGz9sn1sFlav7fBA/br1wDdav7eeCK9yi0HZB3aJaeFmFkFkFkFkFkFHM1oUbc/c5OYCE9uJrxnhBRuDWBE1upyNlYVhbLZWFYVhNcA0Jzg0brUJvPiPHRr9qT5Q5tJ778DZLpSyhwpSPyTefEePO3nx4qj5MSgK81BYhYhYhYhYhYhUP7z/xAAvEQABAwIFAgUDBAMAAAAAAAABAAIDBBEQEiEwMQUTIDJAQVEUIiMVMzRQQlNh/9oACAECAQE/Af72qr2U5sV+tt+FB1Vkrg2yv6Srr46ca8qo6jNMebBVZ79GyX3GHSGAyF59gvr5hIXtcqPqzZftk0KHoeoVgp2f9UkhkNzhTfdQPb8YUH20krselV5d+J/oCq6Y1ExsmUNQ/hq+gp4P5D9fhNrqOFhYxui+to/9ab1GkyFmSwKFNQz6RusVL02eM2AurPhdfgqml7sYf87xNk5zXDlRtp4haOwU0VY7WN6moqq93NunRPbyFYoRuPATKKd3DSoIK8cvsvxluWUgqBscbbM4QcDuFSQiQ3LlLTOYLjhNaXHRRxZeFdwXcKLj8Bdwq7inszcqSHLqFFC6ThNpQ3/JN42yjoUf2yomZQo+VJwjjEpU4KBuVhwjFhuPjugLA3wzK5KbEByrJ0YcjdhWbBvkTI/c7zhpjEbO8E5xh8u+U4WOMUl9Cs4T35Qib4tFh6CYa+DulFxPOMYu70M+xDz6GfYpXXJPoZ5PyBvjebNuqE8+he497Xx1B0sqH333uV1LD3bOHK7Tl23LI74WUrI5ZHfCkp3vdwtGDKECQmm422+ZOGicCThEFlcspVirFWKylFpRGqAuoU/jab5sHMsU1hBUbLa+M6pzLJjSCo2WT+NpvmxttWwfxtiT5WYbheEXX3rlZis5WcrOVnKzFZitVb+6/8QASRAAAQMBAwYHDQUHBAMBAAAAAQACAxEEEiETIjFBUXEQMkBhgYLRICMwM0JScpGSobGywRQ0UGLhBSQ1U5Oj8ENjg6IVcPFz/9oACAEBAAY/Av8A28YY2m0TDSAaBvSsxlnj3NqV97pujb2L72/pYOxZ0scnpRj6Klssgu+dEfoUJ7PIJGHWPwotklvyeZHiU5lmibZ2kUrWrkyK0vLWn/sdi73ZYhz3cVg2i0KkkEbt7ap9oa3ISDi3fKOyic6zFpDuMxwwKDbZE6A+c3OahJBI2Rh1tNfwbK2mS75rdbtyyNnvQwnAMZxnb0H2p2Qbs8pVjhBcPKdiUclmjjs5lHOPLbXuGWYHCMVO8pgmiY8vz3VCvWVxid5pxCvtc+E+cOK5CG2XbPNqPku7PwTU+0O4kf1PMi9zr7vKceKwLvYvy65Dp4YZdhuq5/LeR9e4dnVbJNQHmr2I8BZI0OadIKM1jq5muPWNybZLa4ug0NfrZ+iDmkEHQR+Aunfi7QxvnFOe9xJcayP80IQQNutHv7iQ+aQferSz0T8eGSTzGkqPmqfcj3DrXZm5+l7Rr5039nWl3e3HvTvNOz8AqVSGrmA3IW/XpTYGYu0vdtPDiqDQpwf5ZKkH+0fiOG0n/bITzsj+oVQtncfaIhSKQ+yVSQ1nhzX8+w8vMTDSS0Zg3a/850+2vHFzGb9fDhgrz3ADaSuOZD+QKSJlndR7S2pcjNEGElt3OXirP7J7V4qz+ye1PgfHCGvGNAe1PfkspeFONRC+yRh9YXeZmuOzXwYrBSQP0OHqTWyZrXHJS/5v5fkK5sDAOk49nqUMA0tbjv1q9I8NbzqmXDj+UVRycUhOqqoL0p2DQ1VtFoDeZgqs5j5fSd2LNssfWx+K+6Qf0wvukH9ML7pB7AX3enXK71PIw/mxWUAyjRrZqVy03pRqOtYl7N7V3mdjjsBxWOKyrdEra9Ks9orUuZnb9fLpZ5OIZy47qqlmbkx5xxKxkvu/O/tXfZ2t9EVWdJK4oRQNo3Tv8EZKPYXabpwXe7Q4ek1XnOjI9OnxWEl9vmvxUeYWSsd0UT2F1cnMQBsFB+vKi5xAaMSTqRj/AGfFlT/Mfo9SwtM+6LD4KuW/aHtPWTiYXOXHhHSVUGJ3MCtE0YGzirPuSbwqTWdwH5TVYyuj5nNKwtUOP5ws1wPT3HfJ4mek4BUdamdXO+COTZK87qBd7gY3eaq62SQ80Y7FeLLtdbyuPD6z2K+5oc0aS06E4WN9paPKyRP0V/L28U2ucqWgMtLOfNcr1ndRw4zHaRyeP9nxml8X5N2oLLWuaOupl74oNjnhaNlQFUKtNPDXit2rvtnZIdrgvLg3SdqJs/7Qzedlfqjdlszusexfda/8je1Z1nlaOZy8XL7Sq2yuO9wWc2KL0n9i7/a4mei292IZS2Pkdro4BYWUHncSVSE3RsoqPbThoBQLvkrGb3I5SWK95wOKE0EgfcOlpweEyZmLXtDhya1H89z1YLGi0tVWPcz4LJvFyUeo8GUlG4LPznnisCPfMizY3D3rGSpQkieWuGsJk2AdocOfhrk2erhfA1xETDSm0rONF+72hw5q/RCO1gMPnjQqOFQVUYsTpJDRrdKuw1ij5tJVThvWkIXqYqz18mrffya1Cte+X/XjwYIghR7j8FfdxQnTHE6GjaU6WRxc52kq7qCndb3tyjTg0vu3W7VJEx99jTmO2hTM1B9e6LiqlMtUUw+1XWm9lMS7WKIOX2KU1/ln6ItcKgqdh5viE48LAoK+VePv5NDbmjNeMm7DXq/zmQGtuHBVRjbX4IMGpWduolx+HBe1HgLzr0J0hHHfh3UkL9IJaVQrBBqs5GnKN+PA+TZQH1p3QqcDY4sS9wYxRWduiNgbyaSyyYB4wOw7U+GVtHsNHDarzTgioK/m+B4MnWjxiw86yczCx3OsVW4FdYKM8p+oJsMTaNaKBGxQyOhawCpbpPSi57i5x1k8AyFokaB5NcPUobSWUMjalfarO28fLaPis4VWa0Dgba7Q26G8Rp07+C0dX5gnndwGJnWK/wDJzCmqEfE8o1MtDBmP+h5kYpmGN+w6CqOzHc6s/W+U8N2WNrxsIVciW7nFVyF70jVBjQGtGocAt9nbekjFHtGsbeEQxijB4x/mhMhjFGMaGt3KoVZYGk7dBXi3e0qxQNB26Tw2jq/MFIXupoV2PNHvTbVbmFkGlrDpf+iDWgADQBynJWqFsjefUi/9nzZRvmSYH1qzA4EPI93gX2iKtnl0m6MD0KXKyuYyKlQ0YmtexCGzRCNg2eAoPKlAKLoLjY2mhe4oSP8A3iYeU8YDcOWmuDY7V7r3dU4ZJJ5GsbdIxVpikkax8t24Dr09vgbPDrdJe9Q/VFx0STOcPcPpy7L0N2dgNecYdigtGtzM7fr7qS3WCdzzI6uD6OHNuTopLW5pBoRcbh7lfnlfK7a91eCkVslpoo7OA9autle+Gt1xqGDpppTLPJLlHDHmHMO6yTTVsLbvTrVns9KFrM7fr5c2cDOhfp5jh2Kezn/TfeHT/wDO7kfTvcxvtPxTbRaqm9i1g2KjYzGdrXJ0D8dh2hRRPFJDnP3nupJ3aI2lyY6XOF4zSf5vpy+0wUqXRmm/Usn/ADYyPr3ZgnbUaiNIX7jKZYuY/Qq5ckb7LULVbZMvPpGwHbz93kRpmeB0DHsU9rIxe64Nw/z3fgDIx5FpyfvpyGGDVGyvSf8A4rKzWWXz04/gFodH5Mgk6aA8hmYzEulEY+CDQKAaPwCY+c1p9yjf5zQfD1OhQvGF6fK+rO/Af+Jv1Vm//Jvw8PTbidygPmhx/wCp/AZG+YxrfdX6qz80YHu8PaXDVG6nqTuaE/EfgNqlGdWQhtNgwCpsNPDOdzKcf7bvgnc8J+I5d3y2w7g6p9yzMtL6LO1ObZ7EdGDnP0dCvHEMaSnjwzWbcUW7RRMtT2l7QCCAs/LxekzsXe7dD1nXfjyipRbETaX/AO3xfWu8ZOzt5hU+9fvFoll9J1e4dKf9R3uCI/L4Y82HAWnUeGtntEsVdNx1F37J2hv5hQ+5BsxNmf8An4vrQc01B0Hkb5ZDRjBeceZOYCY7N5Me3f3cYgcCGih3pvhaouOtFz3BrRpJUrmcUvJHdAVMln8qM/RMmiNWPF5p5FaqGnF+Ydzef6lg0LRQ8yvN6RtChmjOa4jwr/VwZOMnJNOH5udVfidipQKrMD3Nmr+b5jyK1dX5wpDGReZTA61dlYWnn4MdA7iusICK6QDeo4Lvlns7m7G1C/h/979Fn2acbqFeKtPsjtXGlHUXj3f0yvvJ/pu7F95P9N3YvvJ/puXjnnqFYZZ25i8TafZHarsVmk0+UaJ8TYbhcKVvVRedWjuL/r4KMaXFMvkVdqVm63zHkVq6vzhT9X6q69ocNhCEsTLri6mlOPPyRvcOThI2tBVUaABzKLpVm63zHkVq6vzhT9X68FfNeCnDnVynTwbaq/qTYiSAdJCwtB9lYTt9lYSRe9caL1ryPaXEb7S4jfaXEb7S8j2lpi9axki96xnb7KxtB9lR3HOderWqargHTwXaVRKe7m4IulWbrfMeRWrq/OFP1frwPiPlBFrxQjBwRI0E8DUGDTrTrS7Xmt8MQ3jtzgrrtBTeDoQaNAWPGdieCLpVm63zHkVq6vzhT9X68N9lGy/FXZGFp51oCFQg+cFkezWUGtFANHhqlGaECp0tWihG1cULRU8yEk3Q3hi6VZut8x5Faur84U/V+vcUc0OGwr7uz1KscTGnmHh6NxKqeDPaHbwvFNWY0N3DuIulWbrfMeRWrq/OFP1fryLE0WGK5vBRdKs3W+Y8inso4z25u8YhObIwjU9usKsUmG9cZalxVxVoK1rWtK0rSta1rirBq1BcY+Eq9wCa2Nh2NGsqCzP47W52848jynip/wCY3Xv2q/knSMH+pFj+qo6j96z2ub71hK3pw5NjK34rMa53uWbRm5X8k5jD/qS4LK+OtHnkaN3Jj9ossbyfKpQ+tE2eeWE8+cEchPBK3VWrSVX7HL/xm98FSUTx+m3tWJad4WMbSvE/9lix60P9S4xHQvGe4rxnuK8Z7ivGe4rxnuK45PQtD/UsGPXif+yzY2hYXRuCpEJpD+RvYq/Y5f8AkN34ppmmgiadPlEIG0TyzHmzQh9nskbSPKpU+vlvfbLC/wBJgKzrDCPRF34LCzFu6RywktTdzx2LNtFqB5yOxZlvcN8dfqv4l/Y/VfxL+x+q/iX9j9V/Ev7H6r+Jf2f1Wfb3HdFT6rOtFpJ5iB9FjLanb3jsWNmc7fI5Zthi62d8V3qywM9GMD/21//EACsQAQABAgMHBAMBAQEAAAAAAAERACExQVFhcYGRocHwEECx0SAwUOHxcP/aAAgBAQABPyH/ANef48T60dWw6UUhuSnUY6UvbcUBdxb380MOwAdlQjqbwk+TmVhqz+BMn+VAH8bVvyOLWMmsj2jYOXGp69oHUZTQgMFiF5m9HwY2W9AGE7L5VZKgBtyDl1wrMYmWk5XpHNzziMTrWBFyI/jWljgXbQU2kWQ5o+DXOiZBvbL4ZceVWyWcW7HCKdyZhzxgjUChAwycz8MkLvllHOgnFxLHDp3ot1KX7TrVyVsXew7mlDptL82Lfz/iZOXG/wCHy+H1bF5A2bD/AGsTqW/RoeX9DKNanDnriT2aZm3A3P8Ap/A5biqbIoLr0w2vuRo8uIxO4Ou+kMebvsXX4dKKC0okTX+DGW/nctakFk5bwsFEexTmtXV9VIuVG5iFyHer4cgPG71sjNl3E07YsW5vunc/gcHDs1t+d+LJmEzifFy277e/BkALq1GaC5xJ/wBOWlc9kGd6kyoqHQwHDkie1RZB9QBj/cR3qbUFDZxWfy0fwIMeAeMP3TlZifEd35H37SCMS5n8rUBOPwV3K3F9M1ndScBRqdYwgqWAzKTq2rDZKZJIwh+aWCyBUiTRNPVEigpQU6g3g2A6NRB9iwB36VzgyORvWAttGkYYoCUNZXSHVk8Gl1kScpYnhB5+/hJWjNsY8kUPKc3tO/UtCwBiqApxQGTdWFCsTwQJ51MUmyWu0UYao+Yfqi25a5HRUlKna71B+Z0rz/tQCN7QqGcZzLPWuDqA9qTBvnH3jGnQ5Hw7HWn/AC7ZNMEhw+CxoljTK3OFZ7PGpSg0tm3UPvnTdcNnyptLvV4YHWiUy0TOUvigZ2Wn1oZuggfFZ8iZq1dv6h4vkEciUiXSCTqRWJHYQLlDpUCOGwfZU5YaTKRe+8K3xYQJ8vugH1UIBq0GANY4cT0qHvcY2PnWsmYzolod0030sl2B+qnaQzMvMqQwulWvRarJD3b0ijNsh9DFSFjaXSSghfkEHlQ0huZL1UMWKVhDxJqRA7D8DUQHYWJ1npTN3zfWpgRwiPdTmrrN5Y+hxPnOL7UxUMgI76QJDumD1oZmhDkJbmUkZo995tPbp3vEzlHMF4FDCjb+Dc7Vk1ICcqCQEcygIAcTGPrG8Q7UYzPG8q7mr5Wp0mQDrB8UGoDAhWg2w2igHvQCdGvFfdcYSP5a+Ry7qOXRZvlRAFsBbwu9aIvXhVioUgwdnSp+NGj6xJBkFdA6KUYLy5zZ8a68uwR3nLhTbyx2JJ7YHEJEbp204gaBgnGt10TK4YNWMimDB1Pr0MFhiverxQtQ/RTXFfBtxUuQJmtYPLkoIdFlkMfvj66xax9WBOicLFaNkd6iNly2PFanDOxjd5l5hUVla6dMHSjCmlU2aRb5T9VZS7N0LhPxqdWsEVJGW62DjpHtkuR8E76IScmhb2ulSkiMGvI6qKFl8NWiHg3gwKaEUpTKWzqwdTA5tk3ndG2lELiEXbNIygHE/wA/K6xglpE8rVs1ESVGLgiXKSKdbFxq2WiWyjH6VBQEJWUJa6lTFBJEOlItlGQFHqyWoxwqHZOPbERuUyZU6yTUWXPbsvSETmUEa6AHFWC4KAeZhvLPl9HENvt9DAjBuUrgm3gI+Z/LI6Q2WpEcJQVAStKtiY1MromJst6SiLrdI+caEpM/tRAPQjEYNVYOtKbJliJgifbaAIM6XNWwYFBqbHEaETl0qIbKEu05ekwAfNy0OxpqOZZt2tAEARyaDBLR9ZNwsd3ZVqQRSuimQ6TuG7bWP3yUvo1usl3tVDekAtOcbKePU1zsVbB3isdDX0nDdI7nUZet02m+3oEnK27FST2LM5t8ocdnuJkOxm+Dd0QpzaDqOZR0nQc6cbX129s6qCPAs6J3hqjlhWUjAgKAQEU4KBa+m2nxu9WlIGC336FQuCEzAIKFMymjvifkKvT1dBj/AAdji+qApxah9Dg240Yg6+b6rSNAt/p8utBReAQBp7lRjGZlqOJQQNahwwwOeMcat4QeY/I37/VZoK8mezq3Rxp6t7TejhwNXWkRmdVzfUwzb+IJCNxIXtWENXYOMQXzorm+Lw1yeM+9im4cfLD8pCsGtpSTbTu0CWLDY1avhy2Lbw22WrLa2lAPyTIzy7GH40QvIGPkXviIwIrYw5C41JTJpRFtuofyYxjByZlLCLHDClUGjSizcpZRsTHGkvpDOJBIGwlFOrERgtyxC+F6nLFSZnQ/LC4Frnv8g4VKsGht36l98QZDXRfdempdMhI5HDmuf5zsStscHP5KcUjIRvLTLL9j8zS1TLkY2DV7MS0yOBBw/LGNoawTQ6QI7meqHH38RQKdyeqKkE2D3n0H882k2S6jSkxURkb7c7poBgc1OrajyCwXduN18dfziELRzxDzOahtcHTAJY3qfwCKJmlsn3+xchxPefQo4ux3n+38AZoC3vktHsJKxHtI+ZRwhQDI/geL0TtX/VVP3s0gErQbsPzHs/g4Xlenk9P7wedw7hTlYJcjv/BADOKEISc22Q/euECcCoUOZOR/BUknAY9oCoXVd3f91x7lm+ggYodVALR+9FAloFjpZhXCTTEb/EdRTAFUBktYD81bWQZzW3erO3H90B80qFrBKQmbHlEpqN9kOpoPE6SOUGhEEZHD24IgBdWmhfl/w8ppkCVbr7Z0KZGNZJwbhwqKimojQ2PDWai1Xd+6zW1v0fFiDUVFJkOYy3xjRwvV+jPcNMqe0XS85xQwBSDIns5mM6AErQs+2GIa63odaj1mp9ButgITNJUW1k6ftJFgEtPihS0bQJRAUjUqsZTapqfWKPLrdWNuh+ah2zqB9k/soFtE2j1aAp4cKDQA2FWYNagbKtPaqSwoc7n7ZpqdXphGITN4tRY+iK0C0ilRbPJpFQkJ6tORTh9nSib8QJz4VuXcxqajoZj+EuTN4UAiCphNTnRA/OX0F9w+TEpaCe2mJffX2oXJ8dPXhwdV8NKHhun1UD4zelOTWwDuJh+E1dB0wxnlUatG9+ESDO3o3BgKdLgsyiPuur9pxaNk/GUUsiZBZcXDhW8MPwBIcG1YP6uP4Nb5X9WuEprAKRfbWyfQivHwrq/a8Wjkcw6netyZVMy26PQCorAVlFCaOfAchanYbfPvWf29FZhb0dqdQ4/qksnR/wARX/AV/wABQ2IaGhcf1WQG5Xasvtyazu3R71bpXmxH3W6FqkIvhq9AiSSXZRmuKVywTm/56ePhXV+14tLRY5Ojk02GmoiMgikFKXj7UCa6dwmkKR0ub5p+4V5WHWMqBUjO0a+R8Ugq/gUGDy++mJMcE0PTx8K6v23FoNOEiXA7aiTbaGP3Rm1swLYRWLncrfTQwBQDAP3cihrTnBpLPaU5jpQq3m1Lb2wCmMkl/s9fHwrq/b8Wil1xCSn5eDCkNrwj+/8AziqUMvpCBt5VyenQscGPw8fCur9nxWeyQ+S3ms+urWsaD9Xj4V1fsum9oRe+QKjuTMIQ7lT0uYMG8oL/ABRpvhRnHnQc3zoza9hy0f8AFW28q8o15Rp1VwrYctOUudZIN7ScHcFYlwrfshndudL83jko+FMtdOwijgsezn1McQdD/qnQwBLDeFnxWCJsQ1CivJQ3XpdaEcGfaKGNFcuMulS4jyVY42xLRIZwURsm7wKHJYItuHlvx9tMMevhV6nQ+BAeFnrSSCMTgUJ1qFd3QXW1IiGTFPCF3VLtWySgZ+XCoNi7Ae9DNz4PukY7468f1V4fqrx/VXh+qvD9VAw3B0Js+4fdQLl2gd6Rk/G6lvMlaxJ4udT4TAZpIizofKUrgaBeCiOtQI1uRfhd61IMDl1K/vfINNShY8QZKC8ZatTMTSD1ojegujnl/wBj8pmZs7bdl3KLvU7kqdgadjU8Nodk1Cl7j3K85Q0P/Wv/2gAMAwEAAgADAAAAEPPPPPPPPPPPPPPPPPPPPPPPPPPPPPPPPPPPPPPPPPPPPPPPPPPPPPPPPPPPPNRpvs9PPPPPPPPPPPPPPPPPPG5KgAC5/wDzzzzzzzzzzzzzzzyoJVMBMkC3Tzzzzzzzzzzzzzz0H1uvkuScYfzzzzzzzzzzzzjrASE40IYSEtL/AM88888888885ZfDwtaIpMlDcUf88888888884phaDRgJDlKr4Km88888888888HzStxyA/JuAaae88888888888sxDBC9JtpBB688888888888888tgBD30RABHX888888888888888iBBCgjBBD3888888888888888ZBBBBBBBL8888888888888888oBBBBBBBG88888888888888470BBBBBBCqy08888888888nHzYeBBBBBBYRanh8888888885BSgMDJCAKFMKWMZ2888888889zpD1fxc059wpUC3W888888889RPxqAAAAAAXitgUW888888887AQzAAAAAEEBByBUW88888888uHF7DTjDBBBBBJLM8888888888s/CjYfzx7CFQdO88888888888888888888888888888888888888888888888888888888//EACgRAQACAQMDAwUAAwAAAAAAAAEAESEQMWEwQVEgQHFQgZHR8KGx8f/aAAgBAwEBPxD65UGo4l/+I0ttH2hSzB5lQ1bzKh2cmi0G6ji9hANw/wAxK9i2XYgmiIz50aH+7vEu9ACv5/fsMmUl48zZ2Kaw+WDyWbf1aJIgqbf1TdgOIeWjzFK1jGV7dYeyBMZhewp4mLQecyjSD8TZmWRLdm9CLMXcYgVp90yQjcDqC2Kp+yVKqLQzc8EA5RI1KGVib7wdioZZZC7BnKIH4cxUCnpum4KPeH779Tddp8FMX8pu6EwU2mT4mRJb3xACG426iPchN9/xBRsgJhF1amyaqVAuAqEV2xJLEMP5P1HqvJqFx0rQOXV9cR2HURZK5ouJfFUACjW5fsHqS8MEqUPmBs1dKPsO7obD2JwvQp/z7CpVyf8AXrpyDP3dUJiXKYZV49diZSozLleOlgMyoHjQaxO6BDzznnLOSck54ntzLW8soyRVgoeluR5I0LDNtowWlyS/KX5TknJBGiBK7ywKMuzx0zehiKl7XceCMA9Y03N42GUVEU2ulva2+u9bXTa6W5TF9oh20uXLl+oFg0PLqXMTg9DXNrHHKPEuX9Z//8QAKhEBAAIBAQUHBQEAAAAAAAAAAQARMSEQMEFRYSBAcZGx0eFQgaHB8PH/2gAIAQIBAT8Q+uKEBCq68iN2n5/EvqF05wD3SgauT3i48Aaf7LM1Sn0/V7MZ133fi5bgW3XDyxHjxjg+0V9x0Dnj3iV7XYetL9HZ4pK/HztcH14P69ob9UXFrWXR4Erb/uV6wOPgH8vpHjKz182f3CFssoK9yI2G4Pz7x+kczW/3AVCGuukA7gv33w5RCYc7ltE55835l+FOlHv6y1cnLn0uaIx4k6UTpGa35avWClROdP8AecW0nw+WWO0XxxcwzvFpFCP1LFXFajMynNyjRjnTyIAYJzkfmxOMI3yc43dr6R3le7GkCxHfgwQOMrnKZzOVsprzlKOcCUbr7RblCbzNMxxiDUIu0ZjN6nYzENBjeLcKquce4BW91lbQC+wGhx2iK32EuTaigm1NZOMRW7AuVx3Ci+0UbJzAjN7VBDHcBjcEV3FGhuPscdwslnKD+f8AO3fRpfbL3i1NWVNIhPN8dukc0vfJpNJUvnuqV0l845oQQ2MoYKI8IjwnUTpzoMGgZwQBaIRSyDZKUuGNzghKiGoCtES0nSnRnTnTnTnRgS2IqIqIbdZlhjc4olxbpYGWrdsApiW6y0Mq2zJDG5xbQHDt3tAcNmSGNzqNkCBMMuXLly+0oZgY+nhvKIWYZXx270J09r28Zay7FH1n/8QAKhABAAEDAwQBBAMBAQEAAAAAAREAITFBUWFxgZGhECBAscEw0fBQ4XD/2gAIAQEAAT8Q/wDrzHyngMw2zYYRFVKPTYYbK6pDY2z/ANvdNT6TqCAw3IPWCrKlgRxoyKY2uas++lEJlFw1EH/lPlfAhU3FI5sDsNKv/LJpG5KRqRuYVOmAsQXHpCb5YghRoLMyILmdea2VqA9Aqe3zS1byHPYUKKxKY2UiDdWCAuEj8WCTiZAUCW4nM0i/gLVYugRrgDm0mQrerqSYTUyf8Z0aUWLdy3JbBJKVdkTJJsF0zfEYNg1ZiYWr6TNVJQ7KwvoW97l9GFJgjjDNkiIiEOAobQeUjGThk7fQ80wI6Eg9Jjroap4NkLSSSEY1d1QmxZDtiXvM9FALskQ97MjvwSZgpuEwUNoClTZIxaSH/EASK3YXLVwR5RBhaMdwX0iwBYZhusu6j0YAGy1DzNjNpYFKrKytXfwSotZfvaf61qUkNbRD34vo1gEytOHAPFBwgD3/AF8HrSAQcjQ19N0flnif6DdaGUemofkWJAB/nlEiQJZEvJ/wSARu4VLHAytA3QbxMFsQA6EPQ0BQUY72vfUi70CAD5PAgrQ2LEe8j0qQnoyTEQWO/p8iqCinM0PVFVPCZAPkUVzdhPoOEJOscp+acmi54VadZc/YoxL/AIAoLKEAGVaFyCchIWMAoksQQXKow1LOEl3TQNAMsr8QgjmnY01Llox1ARux9ilkbsnJH+X512jX1ce6TwMLOqH4mj6Wb4ajx/xLPy1NuKPBlQ2uIaILEUvlaVMJk6BHdWI++KA6jFCDIbkh7Qotg0XcHhhEteKllVb5WrNf2uqzkb5aAYcmA5WxTC7QxfoXZpDgAGbpiDE9XFNzASSRYRNmvyJEwbKQkkbKjTarTJkwxl3JtWgMEg6iKgoICY2Ha9KgR3qCrIr3LlRonDUMAuDMN+eAY1iKlsOIgwk4Ikdga0felWu5b8COaKhSA4kCQlvalpxWKRq9ctvNJySIC9AflQrJUk+iYTHapg+wBvWBtEt2MrUq6RXUaloHuKOWoQ9kfvmgRqqPhlCsN33ooQ1gqECMh2QtWDYQFluFvqpo3ZWD7AD9tX2X2pGqgN5JCLtAOpKh5hSGst+XQEc1Oe9CsAYAszfHpWBTcs0CFHCEBa+sCUeJ9xxP3nyKwUuxHhK4g3sCpv8ArAA3l4PKpIzEARcIN23hQjkxPLA91FHMq7tJ91Cj2RZXLa2HQAIAP4nOFm41RESulqQDcidIp5RUjHkgAvaQvEmrb9FyMIAVgNhCkJPc2wsvgp5oJi1CEeyzzV6v9wDfZopKjYAJVq06mGX2g5W4wl6fiSgyNoAodVXUWJYUHmihKcCBlTYOXVN6JonMkeGURrJBuAgPKUrSggC7sn7oMYGW2dWPTQoe1jPQs70EdWJbyPspDZkI7kTxQnFAQfHyBIDdYrjjynsUFaiZK8gouwo/JGCgx1IJwO0PzUisSh0rJHVah+M3MGdbi9SrFeFdUwgciEOYihrWRpgZr6xNGczo71lEdbUJZNhgbD9h5o/tkIl6oSJoibwyH2w1aXIvpOygflaQLhAIjEhdV6IzM2KlbHLgsoMFpEke9Q66SAwxLr8mQi6eejX0c06YZnxSEodZnK09sPSjlAX4HZMoM1lED6MR796dgw2g3yKT6IR/u58EWATaIeRpt7Xy8aw2TRb1XD3SBjux7WBQjGdQPZvSgmPgHagjw1OtuWegln4QRHFH8TBAdimwYcDL0FoEALATGYW6JFMJzEC2LKSLCXlcuGm1rsQpkeyfa61GVBjbKcSz70MJe8r+qEWNwSF9UFVrKe53UAsovEMy3E1WlxbxUzxxqhuNuKDLIqzjXk1eYGIpdlOxZro1Fm9wdilRCuq71aRaswD0TCOo2daUhFwNsDYbAvYfCCQgmzXOGcifFABAQHwYG7GERCzcQ0gnK0cBOJXehSw+puetcdynv0WVOb3LX0FOQdhuPI/sqfCsJl7P91JDTdDHdWANVph8QXB6QY6boVp1Jkbhfb5qwL2H/ijy3MlOIn81Ok+dwLsh2+1ioPooTgDtb2pDCISJhoFI8BoljKQ+NCstiWM8dDPjmj/Bl/8AiNXgabm1m67cBgCwAFG5CQbnV/VJjSTiCxSRIMyQSapayYBIQ0khjSaVz5YEfx+qUUoyysEtSbF44OKuv2GsS6AIABVYZgJijqGJ9UTYDRlAmXUiXZCbAYSUH+zV8Kb3iJpQqMheUzHisog5f1UCR+WmDbDnDAfhpPQNRCI13Ae/2xOkZREoMpQbGWKJhAHwy8W7PxCiyD1ihfRY1WCrh8Jd3K92WnKBBogPTyfBBSkmzUfv4RFCA65T+KmNCSYaXp7fEn0RAHOZKjxS7EeTc4pWiIALrTIyS9SzHulhsQSJAy5GO/wOLqjUpPRGiZ8gUxMBSxV5v7hAXHEqb4ms5ZKCchuxLy/bPsQF6Nki2AWkkk1qbctxrhEJCIGE6UOzzFsmjWtaqOtQaIAnKj2fENzAWASxeCzGLMMRV3C0FhiUWHIpS3NYJGu6gEniu+INyB8Av0JSMUgDbK8rKuqrUY/nd04XAQhEt02BckS47dW78XotCXeXL8UhhnwGMCrcKTpFA+8BlggHVgBC+G96Mt62of1Ti7AF/NF2AmdqBbYMjwi4Mk3UHETXt0SUMYdX4BwcDAannfxvEMeToIDB2hlZlRl9xNsQY5LZKnUlSpN6IaqLwOC2a42uWZoKdCIV/TDzFQPYPluXGYZHcnDzTNIsoQ8KjtR4yR7YZdyiB7AMOwFihIgbVfcVwFUAzKyarofhh0Fyl3lQmo7Ao4F9VAgluwBdpSUC6GtYaZNTqoveg70bW/zVyBYVHDqdn5cgEQOrPbxTCpmuwugLuSkxWy38H4UVTQUg0RluYRiBKBsKQCIAFgC0fcydBCI2zheRNsVeAxCWUASdZWRAuqEBELeFUW6pR9JS6sPVFNF3YyeEk5CjKuVRU08saOMTEXkTpmlOVZS6yrpBdVsbfDigCwIPpPoFnKIZzJ7TQFYQoRAFsBxF80mAoKGZJCLF0hJEmPvGncCC2Q8vOfqLeIdaG00dZlxT5EOJeIspsS0a2M0WENnAlLNhhiEPLQxY+aXoy6daVVW6/SwBpiAjz4mjTCCOS/75RgTFCKHdUS6akZIZCWM2tOPqWRNZDgMoQCUgFhR7CcukICIiSNFSwENGJCxdtRQcCRpGAIBwFS4SkhQwCgCwyxUh+YN3LJeDLglVgn6jRUFSDcg3uOaxcwc++eMVriZsA6zUZAXKYiQNAV1+uUdvetM241jbcoeZ4vlcFe5cBIIveCAFLrDyMJ270OCCmDAD0l4RJc0OGMzkTLkGi0r6gXUvRIaBOrEFSobQITNHIoL2offY8FCbV6KoICApzGX/ACv9bM0ZyzwaZ6yOEShKqRinKuK7kaYocRkwucXvDNMR6Fl1oNjCKApsofWOfbHN1A6AoWzNZAdbBPP35xUD3HtUl8J+xF6tDZcn+N6sBboSrHpb2+/cUdh6W3T7KuB+w8RCc87nmhdDxQEAdv8AgXansMV+EdI4H9/zgOaRgC60PUnjoKnhn/CsYf8APBChAGzL5Y903fht/JP/AAc0EsIujusKSya9Qkp7j/M0rw65kbDRZe9SFT19+kv/AAHFBwLKV6HvUycWz1/MRpBg+Vj21C8DJ3aFOKlxoy/p+9QIAEq6UyPCBYZmI8Upbbk3m+qTBM0QggTDeKEFoxSAiPk9qke4GdZH8H80wLrc0LHtfFOHCjokUqGGAzCJtZh0xQAk1EXm+qIs0gFVdpTxR9gShkTf7csLKEAGVamRwSEHZVxya3M0Qothq7VSdIF9cyI6CKlv8AFImQjkhkB8j2KVlsz3B/7/ADQsExDi77X4HtDLkYfhLeltQMHjiCAcM0yeCCJGBgdaDPnJIi0BYOSaNDokkSIlkTX7MQjcijVhsDUbOtmTJFrAxeAi8ooEfDSW1LNCAfoAOgVl5mSRmmONp3N/7j+Vn4cmwUkkv6yzUMQQAcrQrTQRLaoblktUt6PhBtTsrNPX4LLLvra2obIAE+CIQjGjDhx9k7WPVCgHRFHhqx+VpRp5WOTd4rTe0CTSBjdii/JrUx0vATrj+nR8VKSEMSTBI1LjyNH8kbt43dH4WlglxTjRIWjI14bbK0WJryvwcvqgoOnY8UFMLwt/RSFyIR0flTSirIFZgBDt9mZMREWg6Oh5WZyRTC48EByHCcnwMkhx77Hn9/QW9gNdR+6CP1GBjURhgtNAYSZkHqP1Q4JE8UjnXoi8tAQdYU4c2lQpadGR5NHS8V/R8smQJJwCrsoT+HcUiWhNjJoal9Roz8CxaAkd2aGuxmxYBG6STOtHKAv2Hx+flJIox+Xe0f8AcVMFD3zSaOu3VrmLOx1HV4bZftI1np0YK1A3UbUT7bZYgymNBEF6E1IeBP7+iB8yI3KvA6VJUm9Sb1Jv8Wq1Wq1WpJvUm9Sb0po7QGS5lf1HyoF2qLOnovUGOIqAQF4b51oUHYKDsfajGs9P4Awsw2E/KKB1peZH6qX/AAgWJca/CyyQrYyz3KKgUSnJEz+KBlZAUiZvyB3pydvD/AUCf88YWjYv/JfQMdB++sRHT4eShqS8lX+L/dDMR81sRyr/AEKZnrP1Vfj+U/Gkx/njKUXvsf5OjkKAJA2IgtMvFDfChUaQv6ioM5K9aBONMfABYIOH90ZmSM5m37q6eU9ZPtgxrPT+BbCUROpBww9qWYHUF9NHcde9GwmA1LFahfYp0vbTZNJuLd/xSwYWTUs+YDu/mYjEYlYRG6iwbxU/RzLG93rU/wCzoy12kouWhXpHLeEeqaW6JIRFztfqv2wxrPT+Q/p1A2kMJo9nSB8qwsQcjgcilDLp3JP3RgFmAt5j+qBQIHYYZHLfbMhvNlwAgA2j+aVMrgyqSSq1Cc8mqa36IBS0XCWS5WB1F4/NEgoCZXgM0UUmrh0f6edvtxjWen9BgrAadRtUNt6TwQVaZEe+In+Zopg3TD+6WtbV+IlJgKHmt/vDximgZyFLx9wMawBKSkCfskAN0KLQcCx5qTl3Gd9/vRjMoEuUCAV0L7iaRsrNxphwkkPNRaKFIZdww5owBobh/VGz1C/uj5vRFaJdJ/qlYHQH90bN2f3S8o61H0O+hdZ/rauf/rih46CqOH7P7ouf1BSfbD/VHx/gdZpyQ9X6Uqsqru/x7czlfoMvagKOb3hguqwAmpvQGIgrJkTLWPs0lnIKwCAtwCwyCAmCKby6tEQqghDKhyaXILaIjufsangjdIE3kh9UUbxgJR6QaAEA6jP2gEoA1aVMwYYY9JNRYZsoL3b+qkzWweBl/QUEoRXNEiAmmFDEpUqlIYSIS7eWZMFJBT7YrcMD4/eh8xG7ql71m0CDFsIPesMJwe7BB3pNnc+Owpkehh+lAltRp7WlJIGsTo/owF+FRzl2D1Qv/MthrlfRDHDORULngP2wqCD7wPdBdLAvyoSyDSY0sBtvxKUz2eT9qOtmFZ6ApdG5qPaQ9qGkE8XcA3pU6TwIHZHpNIXTo3eJ/eo+671FEN7z++KidHeXlKnwk4UJ5aeb1R7L7qK7KH4D+aVQM4skcan1CIicrlmEI6tR0t6zubP5qAbSQeh90pAMgL4aHHzfPKVFEyYfxRQAAEB8zU//AFX/2Q==;" vertex="1" parent="1">
          <mxGeometry x="310" y="260" width="90" height="90" as="geometry" />
        </mxCell>
        <mxCell id="IfkOpMCxYSYoQuJ_WlAo-12" value="&lt;h1&gt;&lt;font color=&quot;#000000&quot;&gt;Local ETL pipeline&lt;/font&gt;&lt;/h1&gt;" style="text;html=1;strokeColor=none;fillColor=none;spacing=5;spacingTop=-20;whiteSpace=wrap;overflow=hidden;rounded=0;" vertex="1" parent="1">
          <mxGeometry x="50" y="180" width="360" height="40" as="geometry" />
        </mxCell>
        <mxCell id="IfkOpMCxYSYoQuJ_WlAo-32" value="" style="edgeStyle=orthogonalEdgeStyle;rounded=0;orthogonalLoop=1;jettySize=auto;html=1;fillColor=#a0522d;strokeColor=#6D1F00;" edge="1" parent="1" source="IfkOpMCxYSYoQuJ_WlAo-13" target="IfkOpMCxYSYoQuJ_WlAo-15">
          <mxGeometry relative="1" as="geometry" />
        </mxCell>
        <mxCell id="IfkOpMCxYSYoQuJ_WlAo-13" value="wrangled parquet files" style="shape=document;whiteSpace=wrap;html=1;boundedLbl=1;fillColor=#6d8764;strokeColor=#3A5431;fontColor=#ffffff;" vertex="1" parent="1">
          <mxGeometry x="460" y="320" width="120" height="80" as="geometry" />
        </mxCell>
        <mxCell id="IfkOpMCxYSYoQuJ_WlAo-33" value="" style="edgeStyle=orthogonalEdgeStyle;rounded=0;orthogonalLoop=1;jettySize=auto;html=1;fillColor=#a0522d;strokeColor=#6D1F00;" edge="1" parent="1" source="IfkOpMCxYSYoQuJ_WlAo-15" target="IfkOpMCxYSYoQuJ_WlAo-16">
          <mxGeometry relative="1" as="geometry" />
        </mxCell>
        <mxCell id="IfkOpMCxYSYoQuJ_WlAo-15" value="" style="sketch=0;points=[[0,0,0],[0.25,0,0],[0.5,0,0],[0.75,0,0],[1,0,0],[0,1,0],[0.25,1,0],[0.5,1,0],[0.75,1,0],[1,1,0],[0,0.25,0],[0,0.5,0],[0,0.75,0],[1,0.25,0],[1,0.5,0],[1,0.75,0]];outlineConnect=0;fontColor=#232F3E;gradientColor=#60A337;gradientDirection=north;fillColor=#277116;strokeColor=#ffffff;dashed=0;verticalLabelPosition=bottom;verticalAlign=top;align=center;html=1;fontSize=12;fontStyle=0;aspect=fixed;shape=mxgraph.aws4.resourceIcon;resIcon=mxgraph.aws4.s3;" vertex="1" parent="1">
          <mxGeometry x="620" y="321" width="78" height="78" as="geometry" />
        </mxCell>
        <mxCell id="IfkOpMCxYSYoQuJ_WlAo-16" value="" style="sketch=0;points=[[0,0,0],[0.25,0,0],[0.5,0,0],[0.75,0,0],[1,0,0],[0,1,0],[0.25,1,0],[0.5,1,0],[0.75,1,0],[1,1,0],[0,0.25,0],[0,0.5,0],[0,0.75,0],[1,0.25,0],[1,0.5,0],[1,0.75,0]];outlineConnect=0;fontColor=#232F3E;gradientColor=#945DF2;gradientDirection=north;fillColor=#5A30B5;strokeColor=#ffffff;dashed=0;verticalLabelPosition=bottom;verticalAlign=top;align=center;html=1;fontSize=12;fontStyle=0;aspect=fixed;shape=mxgraph.aws4.resourceIcon;resIcon=mxgraph.aws4.redshift;" vertex="1" parent="1">
          <mxGeometry x="750" y="321" width="78" height="78" as="geometry" />
        </mxCell>
        <mxCell id="IfkOpMCxYSYoQuJ_WlAo-30" value="" style="edgeStyle=orthogonalEdgeStyle;rounded=0;orthogonalLoop=1;jettySize=auto;html=1;fillColor=#a0522d;strokeColor=#6D1F00;exitX=0.5;exitY=1;exitDx=0;exitDy=0;exitPerimeter=0;" edge="1" parent="1" source="IfkOpMCxYSYoQuJ_WlAo-7" target="IfkOpMCxYSYoQuJ_WlAo-13">
          <mxGeometry relative="1" as="geometry">
            <mxPoint x="760" y="150" as="sourcePoint" />
          </mxGeometry>
        </mxCell>
        <mxCell id="IfkOpMCxYSYoQuJ_WlAo-31" value="&lt;h1&gt;&lt;font color=&quot;#000000&quot;&gt;AWS ETL pipeline&lt;/font&gt;&lt;/h1&gt;" style="text;html=1;strokeColor=none;fillColor=none;spacing=5;spacingTop=-20;whiteSpace=wrap;overflow=hidden;rounded=0;" vertex="1" parent="1">
          <mxGeometry x="460" y="410" width="320" height="40" as="geometry" />
        </mxCell>
      </root>
    </mxGraphModel>
  </diagram>
</mxfile>
